<?xml version="1.0" encoding="UTF-8" standalone="no"?>
<svg
   width="84.157135pt"
   height="114.3672pt"
   viewBox="0 0 84.157135 114.36721"
   version="1.1"
   id="svg2"
   inkscape:version="1.1.2 (0a00cf5339, 2022-02-04)"
   sodipodi:docname="runtime-shield.svg"
   xmlns:inkscape="http://www.inkscape.org/namespaces/inkscape"
   xmlns:sodipodi="http://sodipodi.sourceforge.net/DTD/sodipodi-0.dtd"
   xmlns="http://www.w3.org/2000/svg"
   xmlns:svg="http://www.w3.org/2000/svg"
   xmlns:rdf="http://www.w3.org/1999/02/22-rdf-syntax-ns#"
   xmlns:cc="http://creativecommons.org/ns#">
  <metadata
     id="metadata35">
    <rdf:RDF>
      <cc:Work
         rdf:about="" />
    </rdf:RDF>
  </metadata>
  <sodipodi:namedview
     pagecolor="#ffffff"
     bordercolor="#666666"
     borderopacity="1"
     objecttolerance="10"
     gridtolerance="10"
     guidetolerance="10"
     inkscape:pageopacity="0"
     inkscape:pageshadow="2"
     inkscape:window-width="1920"
     inkscape:window-height="1009"
     id="namedview33"
     showgrid="false"
     fit-margin-top="0"
     fit-margin-left="0"
     fit-margin-right="0"
     fit-margin-bottom="0"
     inkscape:zoom="2.8284271"
     inkscape:cx="18.384776"
     inkscape:cy="99.702056"
     inkscape:window-x="0"
     inkscape:window-y="0"
     inkscape:window-maximized="1"
     inkscape:current-layer="surface263"
     inkscape:pagecheckerboard="0"
     inkscape:document-units="pt" />
  <defs
     id="defs4">
    <clipPath
       id="clip1">
      <path
         d="M 0,0 H 88 V 120.91016 H 0 Z m 0,0"
         id="path7"
         inkscape:connector-curvature="0" />
    </clipPath>
    <clipPath
       id="clip2">
      <path
         d="M 14.667969,59.382812 H 74.046875 V 118.76563 H 14.667969 Z m 0,0"
         id="path10"
         inkscape:connector-curvature="0" />
    </clipPath>
  </defs>
  <g
     id="surface263"
     transform="translate(-1.5758018,-3.9702592)">
    <g
       clip-path="url(#clip2)"
       id="g29"
       style="clip-rule:nonzero"
       transform="translate(0,-0.4281788)"
       inkscape:export-filename="/home/jo/Documents/doc/presentations/oakland24/graphics/t2w-logo.png"
       inkscape:export-xdpi="300"
       inkscape:export-ydpi="300">
      <path
         style="fill:#000000;fill-opacity:1;fill-rule:nonzero;stroke:none"
         d="m 44.359375,59.398438 -0.507813,0.144531 -27.835937,7.945312 -1.347656,0.375 v 1.40625 c 0,18.230469 5.09375,30.609375 11.351562,38.433599 6.253907,7.82421 13.4375,11.14843 18.339844,11.14843 4.894531,0 12.082031,-3.3164 18.335937,-11.13281 6.257813,-7.820312 11.351563,-20.199219 11.351563,-38.449219 v -1.40625 l -1.347656,-0.375 -27.832031,-7.945312 z m 0,3.855468 25.933594,7.40625 c -0.257813,16.753906 -4.972657,27.835938 -10.496094,34.738284 -5.679687,7.09375 -12.402344,9.74219 -15.4375,9.74219 -3.035156,0 -9.761719,-2.65625 -15.441406,-9.75782 C 23.394531,98.476562 18.679688,87.390625 18.421875,70.660156 Z m 0,1.925782 v 48.105472 c 2.316406,0 8.25,-1.90235 14.003906,-9.04688 4.3125,-5.429686 9.566407,-15.343749 10.074219,-32.183592 z m 0,0"
         id="path31"
         inkscape:connector-curvature="0" />
    </g>
    <path
       id="path17"
       style="fill:#000000;fill-opacity:1;fill-rule:nonzero;stroke:none;stroke-width:0.999997"
       d="m 43.265419,11.703169 c -0.445313,0.01563 -0.887208,0.05469 -1.328614,0.117188 -0.445311,0.0625 -0.878906,0.148926 -1.3125,0.262207 -0.429687,0.109375 -0.85498,0.245117 -1.272948,0.401367 -0.417969,0.15625 -0.824707,0.335937 -1.223145,0.539062 -0.394531,0.203124 -0.780273,0.426271 -1.151367,0.672364 -0.375,0.246094 -0.731446,0.51123 -1.075196,0.792481 -0.34375,0.285156 -0.671875,0.586425 -0.984375,0.906738 -0.308594,0.320313 -0.601075,0.660645 -0.874512,1.012206 -0.273438,0.351563 -0.522949,0.718263 -0.757324,1.097169 -0.234375,0.378906 -0.445312,0.773925 -0.632812,1.176269 -0.191406,0.402343 -0.359375,0.815918 -0.503906,1.237793 -0.144532,0.421875 -0.265626,0.851074 -0.363282,1.284668 -0.09766,0.4375 -0.168945,0.875976 -0.219726,1.321289 -0.04687,0.441406 -0.07325,0.88623 -0.07325,1.331543 0.0039,1.011719 0.131835,2.007812 0.377929,2.988281 0.246094,0.980469 0.610352,1.917969 1.086914,2.8125 0.480469,0.890625 1.058595,1.710938 1.734375,2.460938 0.679689,0.75 1.440918,1.410644 2.280762,1.973144 H 35.25418 c -1.21875,0.0039 -2.41455,0.164063 -3.590331,0.480469 -1.175781,0.320313 -2.29248,0.785156 -3.347169,1.394531 -1.054686,0.609375 -2.012206,1.342774 -2.875488,2.206055 -0.859375,0.859375 -1.598145,1.816406 -2.20752,2.871094 l -3.089355,5.367188 -7.598145,-4.628907 c -0.40625,-0.242188 -0.831543,-0.44043 -1.272948,-0.600586 -0.445314,-0.15625 -0.89795,-0.273926 -1.3666999,-0.344238 -0.464844,-0.07031 -0.9335941,-0.09424 -1.4062501,-0.07471 -0.46875,0.02344 -0.9335943,0.08984 -1.3945312,0.199218 -0.457031,0.113282 -0.8989263,0.270509 -1.3286133,0.465821 -0.429688,0.199219 -0.8315435,0.4375 -1.2143555,0.714844 -0.382812,0.277344 -0.7304685,0.589356 -1.0546875,0.933105 -0.320312,0.347656 -0.606445,0.718263 -0.8525391,1.120605 -0.2499999,0.406251 -0.4604499,0.832521 -0.6284179,1.281739 -0.164063,0.449219 -0.2846677,0.910157 -0.3588867,1.382813 -0.078125,0.472656 -0.1059568,0.945801 -0.086426,1.422363 0.019531,0.480469 0.085938,0.948731 0.1992187,1.413574 0.109375,0.464844 0.269531,0.914063 0.46875,1.347656 0.203125,0.433593 0.4453125,0.84375 0.7265625,1.230469 0.285157,0.386718 0.601074,0.737793 0.956543,1.062011 0.351562,0.320313 0.7353518,0.606446 1.1455078,0.85254 l 12.8745152,7.854493 c 0.4375,0.261719 0.890137,0.476561 1.366699,0.65625 0.472657,0.175781 0.961914,0.308593 1.461914,0.398438 0.496094,0.08984 0.999512,0.1333 1.507325,0.1333 0.503907,-0.0039 1.0083,-0.04687 1.504394,-0.140625 0.5,-0.09375 0.983887,-0.226075 1.460449,-0.405762 0.472656,-0.179688 0.925782,-0.40332 1.359375,-0.665038 0.433594,-0.26172 0.840332,-0.557617 1.223145,-0.893556 0.378906,-0.335937 0.726074,-0.704101 1.038574,-1.098632 l 0.651855,-0.858399 v 4.463379 l 4.277344,-1.220215 v -9.427734 c 0,-0.457031 -0.132812,-0.870117 -0.398438,-1.245117 -0.265625,-0.371093 -0.6167,-0.633789 -1.050293,-0.782226 -0.433594,-0.148437 -0.866699,-0.159669 -1.308105,-0.03077 -0.4375,0.132813 -0.80127,0.378907 -1.08252,0.738281 l -4.48828,5.699707 c -0.308594,0.390625 -0.675782,0.717773 -1.101563,0.975586 -0.425781,0.257812 -0.8833,0.430664 -1.375489,0.524414 -0.48828,0.08984 -0.975585,0.09327 -1.467773,0.0074 -0.492188,-0.08594 -0.950196,-0.257325 -1.379883,-0.511231 L 7.2727429,50.503951 C 6.9368049,50.304733 6.6521377,50.042525 6.4216687,49.726118 6.1872937,49.409713 6.0237198,49.063032 5.9338758,48.68022 5.8401258,48.301313 5.8245007,47.914106 5.8870008,47.527388 5.9455938,47.140669 6.081337,46.776901 6.2883679,46.444868 l 0.023437,0.01611 c 0.2031251,-0.324219 0.4575193,-0.602051 0.7661133,-0.824707 0.308594,-0.226563 0.6484373,-0.38623 1.0195313,-0.476074 0.371094,-0.09375 0.746094,-0.11377 1.1249996,-0.06298 0.378906,0.05469 0.7343753,0.176269 1.0664079,0.367675 l 9.440916,5.76123 c 0.25,0.148439 0.516115,0.247071 0.80127,0.29004 0.289062,0.04297 0.569824,0.02636 0.851074,-0.04394 0.28125,-0.07031 0.535645,-0.194824 0.766115,-0.370606 0.230467,-0.175781 0.417967,-0.38623 0.5625,-0.640137 l 4.190916,-7.270019 c 0.421875,-0.730468 0.930176,-1.394531 1.527834,-1.992187 0.597654,-0.593751 1.261717,-1.105958 1.992187,-1.527833 0.730469,-0.421875 1.503905,-0.742187 2.320313,-0.960937 0.812499,-0.21875 1.645018,-0.328125 2.488768,-0.328125 h 1.713867 c 0.480469,0.02344 0.949219,-0.03028 1.40625,-0.166992 0.460938,-0.132813 0.886719,-0.336426 1.277344,-0.61377 0.390625,-0.277343 0.726562,-0.609375 1.007812,-0.996093 0.277344,-0.390625 0.488771,-0.812012 0.625488,-1.27295 0.140625,-0.45703 0.199709,-0.926758 0.180176,-1.40332 -0.01563,-0.480469 -0.113768,-0.940917 -0.285643,-1.390137 -0.175781,-0.445311 -0.41797,-0.851074 -0.726562,-1.214355 -0.308595,-0.367188 -0.668457,-0.672363 -1.082521,-0.918457 -0.375,-0.246094 -0.729979,-0.523439 -1.062012,-0.832031 -0.328125,-0.308595 -0.632812,-0.644043 -0.902343,-1.003419 -0.273438,-0.36328 -0.515136,-0.743163 -0.722169,-1.145507 -0.20703,-0.402343 -0.375977,-0.819824 -0.512695,-1.249512 -0.132813,-0.433593 -0.22998,-0.870605 -0.288574,-1.319824 -0.05859,-0.449219 -0.08252,-0.898926 -0.06299,-1.352051 0.01953,-0.449218 0.07911,-0.898925 0.172852,-1.340332 0.09766,-0.441406 0.230468,-0.871093 0.398437,-1.289063 0.171874,-0.421875 0.374512,-0.820312 0.6167,-1.20703 0.23828,-0.382814 0.507812,-0.742188 0.808593,-1.078125 0.304687,-0.335939 0.633302,-0.644532 0.988771,-0.925782 0.351562,-0.28125 0.730469,-0.526367 1.125,-0.741211 0.398437,-0.214844 0.8125,-0.39453 1.242187,-0.539063 0.429687,-0.144531 0.867187,-0.249999 1.3125,-0.316406 0.445312,-0.07031 0.898437,-0.09864 1.347657,-0.09082 0.453125,0.0078 0.901854,0.05908 1.34326,0.14502 0.792969,0.144531 1.546388,0.406738 2.257324,0.78955 0.710938,0.382814 1.344239,0.862794 1.902833,1.448731 0.558593,0.582031 1.012208,1.234864 1.363769,1.961425 0.351563,0.726564 0.58203,1.491212 0.691406,2.288086 0.121093,0.746094 0.131838,1.497071 0.03809,2.247071 -0.09766,0.75 -0.295899,1.467774 -0.600585,2.159179 -0.304689,0.691406 -0.699708,1.328614 -1.187988,1.902833 -0.488283,0.578124 -1.050294,1.074219 -1.683106,1.488281 -0.613282,0.398438 -1.094238,0.922363 -1.445801,1.562988 -0.347656,0.640625 -0.523437,1.328125 -0.527343,2.0625 -0.0039,0.28125 0.02002,0.5625 0.07471,0.84375 0.05078,0.277344 0.127928,0.549805 0.237305,0.811523 0.105468,0.265625 0.234863,0.515625 0.391113,0.75 0.15625,0.238281 0.335449,0.45752 0.534668,0.660645 0.199219,0.203125 0.418946,0.383301 0.65332,0.543457 0.234376,0.15625 0.483888,0.291992 0.745605,0.401368 0.26172,0.109374 0.531739,0.191406 0.812989,0.246093 0.277344,0.05859 0.558594,0.08643 0.84375,0.08643 h 1.713867 c 0.84375,0 1.67627,0.109375 2.488769,0.328125 0.816408,0.21875 1.589844,0.539063 2.320313,0.960937 0.730468,0.421876 1.394532,0.930177 1.992187,1.527832 0.597657,0.597656 1.105958,1.26123 1.527833,1.987793 l 4.190917,7.272949 c 0.144531,0.250001 0.332031,0.465821 0.5625,0.641602 0.230469,0.175781 0.484864,0.296386 0.766114,0.370606 0.28125,0.07031 0.562011,0.08545 0.851074,0.04248 0.285156,-0.04297 0.550781,-0.140136 0.796875,-0.288574 l 9.445315,-5.746582 c 0.332032,-0.195313 0.687502,-0.320312 1.06641,-0.375 0.378907,-0.05469 0.758295,-0.03809 1.129395,0.05566 0.375,0.08984 0.714352,0.249024 1.026855,0.47168 0.308595,0.226562 0.565912,0.500976 0.769042,0.829101 0.20703,0.335937 0.340328,0.698732 0.402833,1.08545 0.06248,0.390626 0.04245,0.777343 -0.0513,1.160156 -0.09375,0.382812 -0.257813,0.730958 -0.492188,1.047363 -0.238282,0.316406 -0.522952,0.573242 -0.862792,0.776367 l -12.750006,7.828125 c -0.429688,0.253907 -0.890625,0.425782 -1.382812,0.515625 -0.488282,0.08594 -0.979982,0.08691 -1.472168,-0.0029 -0.492189,-0.09375 -0.950195,-0.266602 -1.379883,-0.524413 -0.425781,-0.257814 -0.795898,-0.581055 -1.104492,-0.975587 L 57.320568,51.65679 c -0.285156,-0.363281 -0.645019,-0.609375 -1.08252,-0.738281 -0.441405,-0.128907 -0.874512,-0.121582 -1.308105,0.03077 -0.433593,0.148437 -0.786132,0.409668 -1.051758,0.780762 -0.265625,0.375 -0.398437,0.78955 -0.398437,1.246581 v 9.026367 l 4.328613,1.234864 v -4.045899 l 0.651856,0.858399 c 0.316406,0.398438 0.664551,0.762695 1.047363,1.098632 0.378907,0.332031 0.789551,0.632814 1.223145,0.890625 0.437499,0.26172 0.890136,0.48047 1.366698,0.65625 0.472657,0.179688 0.96045,0.311523 1.46045,0.401368 0.496094,0.09375 1.000977,0.137695 1.508789,0.137695 0.507813,0 1.01123,-0.04687 1.507324,-0.140625 0.5,-0.08984 0.987793,-0.227539 1.460449,-0.407227 0.472656,-0.179688 0.930176,-0.397461 1.36377,-0.659179 l 12.815946,-7.83253 c 0.41406,-0.246093 0.796875,-0.526856 1.148437,-0.851075 0.35547,-0.320311 0.67578,-0.676269 0.960938,-1.059081 0.28125,-0.386718 0.527827,-0.796876 0.730957,-1.230469 0.203123,-0.433594 0.359858,-0.882812 0.473145,-1.347656 0.11328,-0.464844 0.179685,-0.9375 0.199215,-1.417969 0.0195,-0.476562 -0.0078,-0.952636 -0.08203,-1.425293 -0.07425,-0.472656 -0.195315,-0.933594 -0.363285,-1.382813 -0.164063,-0.449218 -0.375488,-0.879883 -0.625485,-1.286133 -0.250005,-0.398437 -0.535155,-0.769531 -0.855473,-1.11328 -0.32031,-0.343751 -0.671385,-0.652344 -1.050292,-0.925782 -0.382808,-0.273438 -0.78564,-0.510743 -1.211423,-0.706055 -0.425782,-0.195313 -0.867187,-0.352051 -1.324222,-0.461425 -0.45312,-0.113281 -0.918458,-0.179687 -1.387208,-0.199219 -0.46875,-0.02344 -0.932617,2e-6 -1.39746,0.07031 -0.464842,0.06641 -0.918455,0.179199 -1.363768,0.335449 -0.441406,0.160157 -0.863769,0.356446 -1.27002,0.594727 l -7.570312,4.620118 -3.089356,-5.367188 C 63.523231,39.98784 62.789344,39.030806 61.926063,38.171431 61.066689,37.30815 60.109656,36.574751 59.05497,35.965376 58.000281,35.356001 56.882118,34.891158 55.706337,34.570845 54.530556,34.254439 53.33622,34.094282 52.11747,34.090376 h -1.719727 v -0.08642 c 0.976562,-0.636717 1.84375,-1.398926 2.601562,-2.289551 0.753906,-0.886719 1.371583,-1.866211 1.844239,-2.932618 0.472655,-1.066405 0.785156,-2.176269 0.9375,-3.332519 0.148438,-1.160157 0.132322,-2.312011 -0.05127,-3.464356 -0.08594,-0.621093 -0.222656,-1.234863 -0.410156,-1.832519 -0.183593,-0.601563 -0.414062,-1.183594 -0.691406,-1.746094 -0.273438,-0.5625 -0.593262,-1.101074 -0.956543,-1.612793 -0.359375,-0.515625 -0.762208,-0.996581 -1.199707,-1.4458 -0.4375,-0.449218 -0.905274,-0.862794 -1.40918,-1.237794 -0.503906,-0.375 -1.032226,-0.711425 -1.59082,-1.000488 -0.554688,-0.292968 -1.12793,-0.539063 -1.725586,-0.738281 -0.59375,-0.199219 -1.199707,-0.351562 -1.820801,-0.457031 -0.4375,-0.08203 -0.878906,-0.14502 -1.324218,-0.180176 -0.445313,-0.03125 -0.890625,-0.04248 -1.335938,-0.03076 z"
       sodipodi:nodetypes="cccsccccsscscccscccccssccccccccsccccccccccccccccscccccscscccscscccccccccccccsscccscsccsccccccccscscccccccscccscsccscccccccscscsscssccsccccsccccscccccccccccsccccccccscsccccsscsccscsccccccccscccccscccccssccccc"
       inkscape:export-filename="/home/jo/Documents/doc/presentations/oakland24/graphics/t2w-logo.png"
       inkscape:export-xdpi="300"
       inkscape:export-ydpi="300" />
    <path
       style="fill:#000000;fill-opacity:1;fill-rule:nonzero;stroke:none"
       d="m 75.304688,20.746094 c 0.828124,-0.40625 1.574218,-0.933594 2.238281,-1.574219 0.664062,-0.640625 1.210937,-1.367187 1.648437,-2.183594 0.4375,-0.8125 0.738282,-1.671875 0.902344,-2.582031 C 80.261719,13.5 80.285156,12.585938 80.16797,11.671875 80.046876,10.753906 79.79297,9.878906 79.398439,9.042969 79.007812,8.210938 78.496094,7.453125 77.867188,6.777344 77.238281,6.101562 76.519531,5.539062 75.714844,5.085938 74.910156,4.636719 74.054688,4.320312 73.148438,4.136719 c -0.5,-0.101563 -1.003907,-0.15625 -1.515626,-0.164063 -0.511718,-0.011718 -1.019531,0.019532 -1.523437,0.09375 -0.507813,0.078125 -1,0.195313 -1.484375,0.359375 -0.484375,0.160157 -0.953125,0.359375 -1.402344,0.601563 -0.453125,0.242187 -0.878906,0.519531 -1.28125,0.835937 -0.402344,0.3125 -0.773437,0.660157 -1.117187,1.039063 -0.339844,0.378906 -0.648438,0.785156 -0.921875,1.21875 -0.273438,0.429687 -0.507813,0.882812 -0.703125,1.355468 -0.109375,0.261719 -0.160157,0.535157 -0.160157,0.820313 0,0.285156 0.05859,0.558594 0.167969,0.824219 0.109375,0.261718 0.265625,0.492187 0.46875,0.691406 0.203125,0.203125 0.4375,0.355469 0.699219,0.464844 0.265625,0.105468 0.539062,0.160156 0.824219,0.15625 0.285156,0 0.558593,-0.05469 0.820312,-0.167969 C 66.28125,12.15625 66.511719,12 66.714844,11.796875 66.914062,11.59375 67.066406,11.363281 67.175781,11.097656 67.375,10.601562 67.652344,10.15625 68.011719,9.761719 68.367188,9.363281 68.78125,9.039062 69.25,8.789062 c 0.472656,-0.25 0.972656,-0.414062 1.5,-0.488281 0.527344,-0.078125 1.054688,-0.058593 1.574219,0.050781 0.4375,0.085938 0.851562,0.234376 1.242187,0.445313 0.390625,0.207031 0.742188,0.46875 1.058594,0.785156 0.3125,0.3125 0.574219,0.664063 0.785156,1.058594 0.207032,0.390625 0.355469,0.804687 0.445313,1.238281 0.101562,0.496094 0.121093,0.996094 0.05859,1.496094 -0.0625,0.503906 -0.203124,0.980469 -0.425781,1.4375 -0.222656,0.453125 -0.511719,0.859375 -0.871093,1.21875 -0.359376,0.355469 -0.761719,0.648438 -1.21875,0.871094 -0.621094,0.300781 -1.191407,0.683594 -1.707032,1.144531 -0.515625,0.460937 -0.957031,0.988281 -1.324218,1.574219 C 70,20.207031 69.722656,20.835938 69.53125,21.5 69.34375,22.167969 69.25,22.847656 69.253906,23.539062 v 1.628907 c 0,0.285156 0.05469,0.558593 0.160156,0.824219 0.109376,0.261718 0.265626,0.492187 0.46875,0.695312 0.199219,0.199219 0.429688,0.355469 0.695313,0.464844 0.261719,0.109375 0.535156,0.164062 0.820313,0.164062 0.285156,0 0.558593,-0.05469 0.820312,-0.164062 0.265625,-0.109375 0.496094,-0.265625 0.699219,-0.464844 0.199219,-0.203125 0.355469,-0.433594 0.464843,-0.695312 0.109376,-0.265626 0.164063,-0.539063 0.164063,-0.824219 v -1.628907 c -0.0039,-0.597656 0.15625,-1.148437 0.472656,-1.652343 0.320313,-0.503907 0.746094,-0.882813 1.285157,-1.140625 z m 0,0"
       id="path19"
       inkscape:connector-curvature="0"
       inkscape:export-filename="/home/jo/Documents/doc/presentations/oakland24/graphics/t2w-logo.png"
       inkscape:export-xdpi="300"
       inkscape:export-ydpi="300" />
    <path
       style="fill:#000000;fill-opacity:1;fill-rule:nonzero;stroke:none"
       d="m 71.414062,31.171875 c -0.28125,0 -0.554687,0.05469 -0.820312,0.160156 -0.261719,0.109375 -0.496094,0.265625 -0.695312,0.46875 -0.203126,0.199219 -0.355469,0.433594 -0.464844,0.695313 -0.109375,0.261718 -0.164063,0.535156 -0.164063,0.820312 0,0.285156 0.05469,0.558594 0.164063,0.820313 0.109375,0.265625 0.261718,0.496093 0.464844,0.699219 0.199218,0.199218 0.433593,0.355468 0.695312,0.464843 0.265625,0.109375 0.539062,0.164063 0.820312,0.164063 0.285157,0 0.558594,-0.05469 0.824219,-0.164063 0.261719,-0.109375 0.492188,-0.265625 0.695313,-0.464843 0.203125,-0.203126 0.355468,-0.433594 0.464844,-0.699219 0.109374,-0.261719 0.164062,-0.535157 0.164062,-0.820313 0,-0.285156 -0.05469,-0.558594 -0.164062,-0.820312 C 73.289062,32.234375 73.136719,32 72.933594,31.800781 72.730469,31.597656 72.5,31.441406 72.238281,31.332031 71.972656,31.226562 71.699219,31.171875 71.414062,31.171875 Z m 0,0"
       id="path21"
       inkscape:connector-curvature="0"
       inkscape:export-filename="/home/jo/Documents/doc/presentations/oakland24/graphics/t2w-logo.png"
       inkscape:export-xdpi="300"
       inkscape:export-ydpi="300" />
    <path
       style="fill:#000000;fill-opacity:1;fill-rule:nonzero;stroke:none"
       d="m 19.292969,20.746094 c 0.828125,-0.40625 1.574219,-0.929688 2.238281,-1.574219 0.664062,-0.640625 1.214844,-1.367187 1.648438,-2.179687 0.4375,-0.8125 0.738281,-1.675782 0.90625,-2.582032 C 24.253906,13.5 24.277344,12.589844 24.160156,11.675781 24.039062,10.757812 23.785156,9.882812 23.394531,9.046875 23,8.210938 22.492188,7.457031 21.863281,6.78125 21.234375,6.105469 20.515625,5.539062 19.710938,5.089844 18.90625,4.636719 18.050781,4.320312 17.148438,4.136719 c -0.5,-0.101563 -1.007813,-0.15625 -1.519532,-0.164063 -0.511718,-0.011718 -1.019531,0.019532 -1.523437,0.09375 -0.503907,0.078125 -1,0.195313 -1.484375,0.359375 C 12.136719,4.585938 11.667969,4.785156 11.21875,5.027344 10.769531,5.269531 10.34375,5.546875 9.941406,5.863281 9.539062,6.175781 9.164062,6.523438 8.824219,6.902344 8.480469,7.28125 8.171875,7.6875 7.898438,8.121094 7.625,8.550781 7.394531,9.003906 7.199219,9.476562 7.089844,9.738281 7.035156,10.011719 7.039062,10.296875 c 0,0.285156 0.054688,0.558594 0.167969,0.820313 0.109375,0.265624 0.265625,0.496093 0.46875,0.695312 0.199219,0.199219 0.433594,0.355469 0.699219,0.460938 0.261719,0.109374 0.535156,0.164062 0.820312,0.160156 0.285157,0 0.558594,-0.05859 0.820313,-0.167969 C 10.277344,12.15625 10.511719,12 10.710938,11.796875 10.910156,11.59375 11.066406,11.363281 11.171875,11.097656 11.371094,10.601562 11.652344,10.15625 12.007812,9.761719 12.363281,9.363281 12.777344,9.039062 13.25,8.789062 c 0.46875,-0.25 0.96875,-0.414062 1.496094,-0.488281 0.53125,-0.078125 1.054687,-0.058593 1.578125,0.050781 0.433593,0.085938 0.847656,0.234376 1.238281,0.445313 0.394531,0.207031 0.746094,0.46875 1.058594,0.785156 0.316406,0.3125 0.578125,0.664063 0.785156,1.058594 0.210938,0.390625 0.359375,0.804687 0.445312,1.238281 0.105469,0.496094 0.125,0.996094 0.0625,1.496094 -0.0625,0.503906 -0.207031,0.980469 -0.429687,1.4375 -0.222656,0.453125 -0.511719,0.859375 -0.871094,1.21875 -0.355469,0.355469 -0.761719,0.648438 -1.214843,0.871094 -0.625,0.300781 -1.195313,0.683594 -1.710938,1.144531 -0.515625,0.460937 -0.957031,0.988281 -1.320312,1.574219 C 14,20.207031 13.71875,20.835938 13.53125,21.5 13.339844,22.167969 13.246094,22.847656 13.25,23.539062 v 1.628907 c 0,0.285156 0.05469,0.558593 0.164062,0.824219 0.109376,0.261718 0.261719,0.492187 0.464844,0.695312 0.199219,0.199219 0.433594,0.355469 0.695313,0.464844 0.265625,0.109375 0.539062,0.164062 0.820312,0.164062 0.285157,0 0.558594,-0.05469 0.824219,-0.164062 0.261719,-0.109375 0.492188,-0.265625 0.695312,-0.464844 0.203126,-0.203125 0.355469,-0.433594 0.464844,-0.695312 0.109375,-0.265626 0.164063,-0.539063 0.164063,-0.824219 v -1.628907 c -0.0039,-0.597656 0.152343,-1.144531 0.46875,-1.652343 0.316406,-0.503907 0.746093,-0.882813 1.28125,-1.140625 z m 0,0"
       id="path23"
       inkscape:connector-curvature="0"
       inkscape:export-filename="/home/jo/Documents/doc/presentations/oakland24/graphics/t2w-logo.png"
       inkscape:export-xdpi="300"
       inkscape:export-ydpi="300" />
    <path
       style="fill:#000000;fill-opacity:1;fill-rule:nonzero;stroke:none"
       d="m 15.414062,31.171875 c -0.285156,0 -0.558593,0.05469 -0.820312,0.160156 -0.265625,0.109375 -0.496094,0.265625 -0.699219,0.46875 -0.199219,0.199219 -0.355469,0.433594 -0.464843,0.695313 -0.109376,0.261718 -0.164063,0.535156 -0.164063,0.820312 0,0.285156 0.05469,0.558594 0.164063,0.820313 0.109374,0.265625 0.265624,0.496093 0.464843,0.699219 0.203125,0.199218 0.433594,0.355468 0.699219,0.464843 0.261719,0.109375 0.535156,0.164063 0.820312,0.164063 0.285157,0 0.558594,-0.05469 0.820313,-0.164063 0.261719,-0.109375 0.496094,-0.265625 0.695313,-0.464843 0.203124,-0.203126 0.359374,-0.433594 0.46875,-0.699219 0.105468,-0.261719 0.160156,-0.535157 0.160156,-0.820313 0,-0.285156 -0.05469,-0.558594 -0.160156,-0.820312 C 17.289062,32.234375 17.132812,32 16.929688,31.800781 16.730469,31.597656 16.496094,31.441406 16.234375,31.332031 15.972656,31.226562 15.699219,31.171875 15.414062,31.171875 Z m 0,0"
       id="path25"
       inkscape:connector-curvature="0"
       inkscape:export-filename="/home/jo/Documents/doc/presentations/oakland24/graphics/t2w-logo.png"
       inkscape:export-xdpi="300"
       inkscape:export-ydpi="300" />
  </g>
</svg>
