<?xml version="1.0" encoding="UTF-8" standalone="no"?>
<svg
   version="1.1"
   x="0px"
   y="0px"
   viewBox="0 0 55.800999 55.803001"
   enable-background="new 0 0 90 90"
   xml:space="preserve"
   id="svg24"
   sodipodi:docname="ccs21-aion-logo.svg"
   width="55.800999"
   height="55.803001"
   inkscape:version="1.2.2 (b0a8486541, 2022-12-01)"
   xmlns:inkscape="http://www.inkscape.org/namespaces/inkscape"
   xmlns:sodipodi="http://sodipodi.sourceforge.net/DTD/sodipodi-0.dtd"
   xmlns="http://www.w3.org/2000/svg"
   xmlns:svg="http://www.w3.org/2000/svg"><defs
     id="defs28" /><sodipodi:namedview
     id="namedview26"
     pagecolor="#ffffff"
     bordercolor="#666666"
     borderopacity="1.0"
     inkscape:showpageshadow="2"
     inkscape:pageopacity="0.0"
     inkscape:pagecheckerboard="0"
     inkscape:deskcolor="#d1d1d1"
     showgrid="false"
     inkscape:zoom="4.1955556"
     inkscape:cx="34.322034"
     inkscape:cy="43.260063"
     inkscape:window-width="1920"
     inkscape:window-height="1003"
     inkscape:window-x="0"
     inkscape:window-y="0"
     inkscape:window-maximized="1"
     inkscape:current-layer="svg24" /><path
     fill-rule="evenodd"
     clip-rule="evenodd"
     d="M 27.9,1.5001967e-6 C 12.495,-0.0049985 0,12.489002 0,27.901002 c 0,7.402 2.937,14.495 8.172,19.73 5.233,5.234 12.328,8.172 19.728,8.172 15.406,0 27.901,-12.49 27.901,-27.902 -0.016,-4.312 -1.026,-8.567 -2.958,-12.421 l -4.037,4.479 c 0.964,2.536 1.459,5.229 1.459,7.942 0.005,5.943 -2.354,11.64 -6.547,15.844 -4.198,4.197 -9.886,6.563 -15.818,6.563 -5.932,0 -11.624,-2.36 -15.817,-6.563 -4.192,-4.204 -6.552,-9.901 -6.552,-15.844 0,-5.942 2.36,-11.641 6.552,-15.844 4.199,-4.2020005 9.885,-6.5630005 15.817,-6.5630005 4.469,0.005 8.834,1.349 12.537,3.86 l 3.932,-3.933 C 39.598,1.9070015 33.827,0.0100015 27.9,1.5001967e-6 Z"
     id="path2"
     style="fill:#00008c;fill-opacity:1" /><path
     d="m 50.04,4.1620015 -22.463,22.4640005 -4.651,-4.563 c -3.141,-3.083 -7.172,1.292 -5.041,4.156 l 7.776,10.469 c 1.035,1.014 2.879,0.943 3.843,0 L 54.696,8.7600015 c 2.871,-3.176 -1.931,-7.317 -4.656,-4.598 z"
     id="path4"
     style="fill:#00008c;fill-opacity:1" /><path
     d="m 27.562,8.4890015 c -0.767,0.006 -1.381,0.637 -1.37,1.402 v 1.6880005 c 0,0.765 0.62,1.391 1.391,1.391 0.766,0 1.391,-0.625 1.391,-1.391 V 9.8910015 c 0.004,-0.781 -0.631,-1.416 -1.412,-1.402 z"
     id="path6"
     style="fill:#00008c;fill-opacity:1" /><path
     d="m 27.562,42.817002 c -0.771,0.005 -1.387,0.641 -1.37,1.407 v 1.688 c 0,0.771 0.62,1.396 1.391,1.396 0.766,0 1.391,-0.625 1.391,-1.396 v -1.688 c 0.01,-0.781 -0.626,-1.421 -1.412,-1.407 z"
     id="path8"
     style="fill:#00008c;fill-opacity:1" /><path
     d="m 43.743,26.516002 c -1.766,0.167 -1.635,2.781 0.141,2.77 h 1.678 c 0.802,0.058 1.479,-0.584 1.479,-1.385 0,-0.803 -0.677,-1.442 -1.479,-1.385 h -1.678 c -0.047,-0.006 -0.094,-0.006 -0.141,0 z"
     id="path10"
     style="fill:#00008c;fill-opacity:1" /><path
     d="m 9.467,26.516002 c -1.766,0.167 -1.635,2.781 0.136,2.77 h 1.678 c 0.801,0.058 1.483,-0.584 1.483,-1.385 0,-0.803 -0.682,-1.442 -1.483,-1.385 H 9.603 c -0.046,-0.006 -0.095,-0.006 -0.136,0 z"
     id="path12"
     style="fill:#00008c;fill-opacity:1" /><path
     d="m 39.098,38.041002 c -1.255,-0.009 -1.88,1.516 -0.979,2.385 l 1.193,1.193 c 0.536,0.579 1.447,0.599 2.005,0.042 0.558,-0.557 0.536,-1.468 -0.042,-2.006 l -1.182,-1.191 c -0.261,-0.27 -0.62,-0.423 -0.995,-0.423 z"
     id="path14"
     style="fill:#00008c;fill-opacity:1" /><path
     d="m 14.713,13.765002 c -1.172,0.12 -1.672,1.557 -0.828,2.381 l 1.186,1.192 c 0.532,0.579 1.443,0.593 2,0.036 0.558,-0.558 0.543,-1.462 -0.036,-2 l -1.188,-1.191 c -0.29,-0.308 -0.713,-0.459 -1.134,-0.418 z"
     id="path16"
     style="fill:#00008c;fill-opacity:1" /><path
     d="m 16.025,38.041002 c -0.359,0.011 -0.703,0.161 -0.954,0.423 l -1.186,1.191 c -0.579,0.538 -0.595,1.449 -0.038,2.006 0.557,0.552 1.464,0.537 2,-0.042 l 1.188,-1.193 c 0.912,-0.879 0.26,-2.426 -1.01,-2.385 z"
     id="path18"
     style="fill:#00008c;fill-opacity:1" /></svg>
