<?xml version="1.0" encoding="UTF-8" standalone="no"?>
<svg
   version="1.1"
   viewBox="50 50 510 130"
   id="svg8"
   sodipodi:docname="logo.svg"
   width="510"
   height="130"
   inkscape:version="1.2.2 (b0a8486541, 2022-12-01)"
   inkscape:export-filename="logo.png"
   inkscape:export-xdpi="200"
   inkscape:export-ydpi="200"
   xmlns:inkscape="http://www.inkscape.org/namespaces/inkscape"
   xmlns:sodipodi="http://sodipodi.sourceforge.net/DTD/sodipodi-0.dtd"
   xmlns="http://www.w3.org/2000/svg"
   xmlns:svg="http://www.w3.org/2000/svg">
  <defs
     id="defs12">
    <rect
       x="-26.844585"
       y="68.163452"
       width="51.16346"
       height="61.749657"
       id="rect7149" />
  </defs>
  <sodipodi:namedview
     id="namedview10"
     pagecolor="#ffffff"
     bordercolor="#666666"
     borderopacity="1.0"
     inkscape:showpageshadow="2"
     inkscape:pageopacity="1"
     inkscape:pagecheckerboard="0"
     inkscape:deskcolor="#d1d1d1"
     showgrid="false"
     inkscape:zoom="1.4282659"
     inkscape:cx="215.64612"
     inkscape:cy="18.553968"
     inkscape:window-width="1680"
     inkscape:window-height="975"
     inkscape:window-x="0"
     inkscape:window-y="0"
     inkscape:window-maximized="1"
     inkscape:current-layer="svg8" />
  <rect
     style="opacity:1;fill:#ffffff;fill-opacity:1;stroke:none;stroke-width:1.5607;stroke-dasharray:none;stroke-dashoffset:5.15625;stroke-opacity:1;stop-color:#000000"
     id="rect10260"
     width="509.99997"
     height="130"
     x="50"
     y="50.000008" />
  <text
     xml:space="preserve"
     transform="translate(66.233643,50.000012)"
     id="text7147"
     style="font-weight:bold;font-size:42.6667px;line-height:1.25;font-family:sans-serif;-inkscape-font-specification:'sans-serif Bold';white-space:pre;shape-inside:url(#rect7149);display:inline" />
  <g
     id="g10731"
     transform="translate(6.3558295,3.4235111)">
    <g
       aria-label="openIPE"
       id="text903"
       style="font-weight:bold;font-size:121.333px;line-height:1.25;-inkscape-font-specification:'sans-serif Bold';letter-spacing:-5px;stroke-width:2.25693"
       transform="translate(55,60.000003)">
      <path
         d="m 52.36553,85.367735 q -9.585307,0 -17.350619,-4.367988 -7.643979,-4.367988 -12.011967,-12.011967 -4.367988,-7.765312 -4.367988,-17.350619 0,-9.585307 4.367988,-17.350619 4.367988,-7.765312 12.011967,-12.1333 7.765312,-4.367988 17.350619,-4.367988 9.585307,0 17.229286,4.367988 7.643979,4.367988 12.011967,12.1333 4.489321,7.765312 4.489321,17.350619 0,9.585307 -4.367988,17.350619 -4.367988,7.643979 -12.1333,12.011967 -7.643979,4.367988 -17.229286,4.367988 z m 0,-8.49331 q 7.037314,0 12.618632,-3.275991 5.581318,-3.275991 8.735976,-8.978642 3.154658,-5.823984 3.154658,-12.982631 0,-7.27998 -3.154658,-12.982631 -3.154658,-5.823984 -8.735976,-9.099975 -5.581318,-3.275991 -12.618632,-3.275991 -6.915981,0 -12.618632,3.275991 -5.581318,3.275991 -8.857309,9.099975 -3.154658,5.702651 -3.154658,12.982631 0,7.158647 3.154658,12.982631 3.275991,5.702651 8.857309,8.978642 5.702651,3.275991 12.618632,3.275991 z"
         style="fill:none"
         id="path10414" />
      <path
         d="m 133.02664,17.785254 q 9.46397,0 17.10795,4.489321 7.76531,4.367988 12.1333,12.1333 4.48932,7.765312 4.48932,17.229286 0,9.463974 -4.36799,17.229286 -4.24665,7.643979 -11.7693,12.1333 -7.40131,4.367988 -16.62262,4.367988 -7.88665,0 -14.43863,-3.275991 -6.55198,-3.397324 -10.79863,-9.221308 v 35.550574 q 0,2.06266 -1.33467,3.39732 -1.33466,1.33466 -3.39732,1.33466 -2.06266,0 -3.39733,-1.33466 -1.213326,-1.33466 -1.213326,-3.39732 V 81.242413 Q 99.296061,80.878414 99.296061,80.150416 V 51.637161 q 0,-9.463974 4.367989,-17.229286 4.48932,-7.765312 12.1333,-12.1333 7.76531,-4.489321 17.22929,-4.489321 z m 0,59.089171 q 6.91598,0 12.49729,-3.275991 5.70266,-3.275991 8.85731,-8.978642 3.27599,-5.823984 3.27599,-12.982631 0,-7.158647 -3.27599,-12.861298 -3.15465,-5.823984 -8.85731,-9.099975 -5.58131,-3.397324 -12.49729,-3.397324 -6.91599,0 -12.4973,3.397324 -5.58132,3.275991 -8.85731,9.099975 -3.15466,5.702651 -3.15466,12.861298 0,2.062661 0.12133,3.033325 0.12134,0.242666 0.12134,0.606665 1.21333,9.463974 7.88664,15.530624 6.79465,6.06665 16.37996,6.06665 z"
         style="font-weight:normal;font-family:Comfortaa;-inkscape-font-specification:Comfortaa"
         id="path10416" />
      <path
         d="m 208.34916,17.785254 q 8.97864,0 15.89462,4.246655 6.91598,4.125322 10.67731,11.526635 3.88265,7.401313 3.88265,16.865287 0,1.941328 -1.21333,3.154658 -1.21333,1.091997 -3.15466,1.091997 h -49.01853 q 0.97067,9.949306 7.76531,16.137289 6.79465,6.187983 16.98662,6.187983 4.36799,0 8.73598,-1.455996 4.48932,-1.577329 7.15865,-3.882656 1.57733,-1.21333 3.27599,-1.21333 1.33466,0 2.66932,0.970664 1.57733,1.455996 1.57733,3.275991 0,1.577329 -1.33466,2.790659 -4.00399,3.397324 -10.19197,5.702651 -6.18799,2.183994 -11.89064,2.183994 -9.70664,0 -17.35062,-4.246655 -7.64397,-4.367988 -12.01196,-12.011967 -4.24666,-7.765312 -4.24666,-17.471952 0,-9.827973 4.00399,-17.471952 4.12532,-7.765312 11.28397,-12.011967 7.27998,-4.367988 16.50129,-4.367988 z m 0,8.371977 q -9.22131,0 -15.28796,5.702651 -6.06665,5.702651 -7.40131,15.045292 h 44.40788 q -0.97067,-9.342641 -6.79465,-15.045292 -5.82399,-5.702651 -14.92396,-5.702651 z"
         style="font-weight:normal;font-family:Comfortaa;-inkscape-font-specification:Comfortaa"
         id="path10418" />
      <path
         d="m 281.00232,17.663921 q 8.61464,0 15.40929,3.63999 6.91598,3.63999 10.79864,10.677304 3.88266,6.915981 3.88266,16.622621 v 31.54658 q 0,1.941328 -1.33467,3.275991 -1.33466,1.334663 -3.27599,1.334663 -2.06266,0 -3.39732,-1.334663 -1.33467,-1.334663 -1.33467,-3.275991 v -31.54658 q 0,-10.798637 -6.06665,-16.379955 -5.94531,-5.702651 -15.65195,-5.702651 -5.94532,0 -10.79864,2.305327 -4.73199,2.305327 -7.52265,6.430649 -2.79065,4.003989 -2.79065,8.978642 v 35.914568 q 0,2.062661 -1.33467,3.397324 -1.21333,1.21333 -3.27599,1.21333 -2.06266,0 -3.39732,-1.21333 -1.33467,-1.334663 -1.33467,-3.397324 v -57.02651 q 0,-2.062661 1.33467,-3.397324 1.33466,-1.334663 3.39732,-1.334663 2.06266,0 3.27599,1.334663 1.33467,1.334663 1.33467,3.397324 v 4.125322 q 4.00398,-4.489321 9.70664,-7.037314 5.70265,-2.547993 12.37596,-2.547993 z"
         style="font-weight:normal;font-family:Comfortaa;-inkscape-font-specification:Comfortaa"
         id="path10420" />
      <path
         d="m 332.66485,84.76107 q -1.94133,0 -3.39733,-1.334663 -1.33466,-1.455996 -1.33466,-3.397324 V -5.2680159 q 0,-2.062661 1.33466,-3.397324 1.456,-1.3346631 3.39733,-1.3346631 2.06266,0 3.39732,1.3346631 1.33466,1.334663 1.33466,3.397324 V 80.029083 q 0,1.941328 -1.33466,3.397324 -1.33466,1.334663 -3.39732,1.334663 z"
         style="font-weight:normal;font-family:Comfortaa;-inkscape-font-specification:Comfortaa"
         id="path10422" />
      <path
         d="m 361.39541,84.76107 q -2.06266,0 -3.39733,-1.334663 -1.33466,-1.334663 -1.33466,-3.397324 V -5.2680159 q 0,-2.062661 1.33466,-3.397324 1.33467,-1.3346631 3.39733,-1.3346631 h 24.2666 q 8.85731,0 15.77329,4.0039891 7.03731,3.882656 10.91997,10.91997 3.88265,6.9159809 3.88265,15.8946229 0,8.857309 -3.88265,15.77329 -3.88266,6.915981 -10.91997,10.798637 -6.91598,3.882656 -15.77329,3.882656 h -19.53462 v 28.755921 q 0,2.062661 -1.33466,3.397324 -1.33466,1.334663 -3.39732,1.334663 z m 24.2666,-42.587883 q 6.18798,0 11.0413,-2.669326 4.85332,-2.790659 7.52265,-7.643979 2.79066,-4.85332 2.79066,-11.041303 0,-6.309316 -2.79066,-11.1626359 -2.66933,-4.974653 -7.52265,-7.765312 -4.85332,-2.79065898 -11.0413,-2.79065898 H 366.12739 V 42.173187 Z"
         style="font-weight:normal;font-family:Comfortaa;-inkscape-font-specification:Comfortaa"
         id="path10424" />
      <path
         d="m 430.65115,84.76107 q -1.94133,0 -3.39733,-1.334663 -1.33466,-1.455996 -1.33466,-3.397324 V -5.2680159 q 0,-2.062661 1.33466,-3.397324 1.456,-1.3346631 3.39733,-1.3346631 h 56.90517 q 2.06266,0 3.39733,1.3346631 1.33466,1.334663 1.33466,3.275991 0,1.941328 -1.33466,3.275991 -1.33467,1.21333002 -3.39733,1.21333002 H 435.38313 V 32.58788 h 37.97723 q 2.06266,0 3.39733,1.334663 1.33466,1.334663 1.33466,3.275991 0,1.941328 -1.456,3.275991 -1.33466,1.334663 -3.27599,1.334663 h -37.97723 v 33.851907 h 52.17319 q 2.06266,0 3.39733,1.334663 1.33466,1.21333 1.33466,3.154658 0,1.941328 -1.33466,3.275991 -1.33467,1.334663 -3.39733,1.334663 z"
         style="font-weight:normal;font-family:Comfortaa;-inkscape-font-specification:Comfortaa"
         id="path10426" />
    </g>
    <path
       d="m 52.992349,159.46354 6.391345,-6.38417 c 0.11155,-0.11877 0.20872,-0.25551 0.2699,-0.40306 1.91809,-3.64908 3.19204,-6.52089 4.22848,-8.8601 0.65497,-1.48988 1.21995,-2.76383 1.73457,-3.77152 1.2919,-2.52991 2.51914,-3.9766 5.04187,-5.28296 1.50785,2.46515 3.37565,4.65318 5.53843,6.5137 l -3.4872,3.48721 c -0.52183,0.51821 -0.52183,1.35676 0,1.87498 0.51461,0.51822 1.35316,0.51822 1.87497,0 l 7.56092,-7.5681 c 2.05849,-2.05132 5.33694,1.28472 3.31447,3.31088 l -2.41475,2.41476 c -0.15835,0.15475 -0.26272,0.33829 -0.33109,0.5326 -1.19481,3.08057 -1.94335,5.48086 -2.54789,7.40265 -0.46064,1.47552 -0.8277,2.65585 -1.2452,3.60956 -0.70534,1.64825 -1.51862,2.50108 -3.19203,3.32166 -1.75254,0.85648 -4.5956,1.66261 -6.86995,2.27443 -0.23393,0.0612 -0.43546,0.18354 -0.5938,0.34188 l -6.2258,6.21502 c -0.51461,0.51822 -0.51461,1.35677 0,1.87498 0.52182,0.51822 1.36036,0.51822 1.87499,0 l 5.97392,-5.97033 c 1.50785,-0.41025 2.79984,-0.78452 3.91542,-1.1516 1.21277,-0.39945 2.22406,-0.79172 3.08776,-1.21636 3.86142,-1.89294 4.54161,-4.47684 5.80836,-8.51819 0.57579,-1.84256 1.29191,-4.13857 2.41476,-7.03911 l 0.0251,-0.0215 c 2.45796,0.8709 5.05623,1.39629 7.71568,1.54387 2.83219,0.15476 5.72923,-0.12234 8.615406,-0.88528 0.76653,-0.18354 1.19481,-0.91408 0.99323,-1.63379 l -1.73458,-6.48136 c -0.19073,-0.70535 -0.914076,-1.12645 -1.623006,-0.93565 -2.69547,0.71975 -5.44852,-0.88169 -6.17181,-3.56635 -0.72336,-2.68829 0.85289,-5.43765 3.54119,-6.16104 0.72335,-0.19433 1.14082,-0.91767 0.95003,-1.62301 l -1.77779,-6.61089 c -0.18353,-0.70896 -0.91408,-1.12645 -1.62301,-0.93565 l -5.44124,1.45387 c -1.55106,-3.35041 -5.32609,-5.16422 -8.9537,-4.19255 -3.63472,0.97526 -5.99189,4.42287 -5.65719,8.09718 l -5.44124,1.45387 c -0.70535,0.18713 -1.12644,0.91409 -0.93205,1.61943 0.45344,1.69496 1.06517,3.31447 1.80652,4.84388 -4.59559,2.41476 -5.90188,5.70399 -7.93523,10.31 -1.01846,2.29241 -2.25639,5.10304 -4.08816,8.59017 l -6.251035,6.24736 c -0.51461,0.51821 -0.51461,1.35676 0,1.87497 0.847386,0.5077 1.323033,0.17708 1.86043,0.004 z M 73.465854,134.2436 c 1.29918,1.94334 2.85024,3.67432 4.60278,5.16062 l 2.19881,-2.2024 c 2.7818,-2.7818 6.74043,-1.16597 8.05759,1.78497 0.74133,1.66262 0.63697,3.64549 -0.99324,5.27578 l -0.10436,0.10078 c 3.98378,1.18402 8.20507,1.36395 12.32944,0.49303 l -1.07964,-4.00184 c -3.67793,0.32748 -7.13271,-2.04044 -8.10797,-5.68243 -0.96808,-3.62394 0.83491,-7.39177 4.17449,-8.94282 l -1.11558,-4.16372 -5.32608,1.42513 c -0.70535,0.18713 -1.42871,-0.23393 -1.62301,-0.93925 -0.72335,-2.68469 -3.48722,-4.28965 -6.1826,-3.56276 -2.68468,0.72335 -4.26449,3.46916 -3.54119,6.16104 0.18353,0.70535 -0.23393,1.43231 -0.94284,1.62301 l -5.29374,1.41434 c 0.70536,2.14483 1.70224,4.19614 2.94735,6.06025 z"
       style="display:inline;fill-rule:evenodd;stroke:#000000;stroke-width:1.5;stroke-dasharray:none;stroke-opacity:1"
       id="path5519"
       sodipodi:nodetypes="cccccccccccccccccccccccccccccccccccccccccccccccccccccccccccccccccccc" />
    <path
       id="path5461"
       style="fill:none;stroke:#000000;stroke-width:7.8;stroke-dasharray:none;stroke-dashoffset:5.15625;stroke-opacity:1;stop-color:#000000"
       d="m 85.413954,145.45326 c 5.54172,1.92081 11.6936,2.24876 17.759726,0.60574" />
    <path
       id="path5475"
       style="fill:none;stroke:#000000;stroke-width:7.8;stroke-dasharray:none;stroke-dashoffset:5.15625;stroke-opacity:1;stop-color:#000000"
       d="m 66.455734,125.81376 c 0.0266,0.11308 0.0536,0.22612 0.0814,0.33894 2.05888,6.40863 6.06827,11.66952 11.17313,15.31805" />
    <path
       id="path5172"
       style="display:inline;fill:none;stroke:#000000;stroke-width:7.8;stroke-dasharray:none;stroke-dashoffset:5.15625;stroke-opacity:1;stop-color:#000000"
       d="m 108.75022,141.67698 c 1.25959,0 1.29676,0.0439 2.53674,0.0556 16.55121,-2.1e-4 29.96856,-13.41756 29.96876,-29.96876 -2.1e-4,-16.55119 -13.41756,-29.96853 -29.96876,-29.96874 -16.551186,2.1e-4 -29.968536,13.41755 -29.968746,29.96874 0.0212,0.43291 0.0518,0.8653 0.0918,1.29688"
       sodipodi:nodetypes="cccccc" />
    <path
       style="fill:none;stroke:#000000;stroke-width:1px;stroke-linecap:butt;stroke-linejoin:miter;stroke-opacity:1"
       d="m 68.874244,126.63246 7.6765,13.74007"
       id="path5392" />
    <path
       id="path2-0-4"
       style="display:inline;stroke:#000000;stroke-width:1.5;stroke-dasharray:none;stroke-opacity:1"
       d="m 110.48837,84.44606 c -0.41079,0.0198 -0.82108,0.0494 -1.23051,0.0886 v 5.71156 c 0,0.77098 0.62168,1.39338 1.39513,1.39338 2.93467,0 5.31101,2.3942 5.31101,5.32611 0,2.93192 -2.36927,5.31169 -5.29249,5.31169 -0.78104,1e-5 -1.40749,0.62066 -1.40749,1.39543 l 0.008,5.82906 0.004,0.004 -4.53935,-0.004 c -0.6711,-3.8473 -4.01339,-6.71322 -7.971646,-6.71743 -3.96964,-0.004 -7.30782,2.85994 -7.96754,6.70711 l -4.40972,-0.004 c -0.69815,-0.21488 -0.31281,1.70048 -0.31281,1.70048 0.0181,0.36188 -0.009,0.72336 0.0228,1.0842 l 5.84396,0.006 c 0.87582,0.038 1.51654,-0.58539 1.51654,-1.40573 0.0113,-2.92433 2.36376,-5.3013 5.29454,-5.30551 2.94222,0 5.319226,2.39593 5.319226,5.32405 0,0.77098 0.62484,1.39338 1.38693,1.39338 l 5.81514,0.004 0.008,4.55729 c -7.64543,1.54111 -9.410986,13.17956 0.0124,15.97424 v 5.02312 c 0.39713,0.0379 0.79506,0.0668 1.19348,0.0866 1.58334,0.048 1.6131,-0.0905 1.58651,-0.73172 h -0.008 v -5.64766 c 0,-0.76717 -0.62168,-1.39338 -1.39514,-1.39338 -2.93086,0 -5.30894,-2.39203 -5.30894,-5.32405 0,-2.93201 2.36928,-5.31365 5.29249,-5.31787 0.79241,0 1.40749,-0.6186 1.40749,-1.39337 l -0.008,-5.83111 4.53937,0.004 c 0.67109,3.84729 4.01542,6.71527 7.97372,6.71949 3.96962,0 7.30197,-2.85992 7.96547,-6.70712 l 4.34181,0.004 c 0.0346,-0.37384 0.0613,-0.74838 0.0803,-1.12336 -0.002,-0.5563 -0.0213,-1.1124 -0.0576,-1.66749 l -5.51267,-0.004 c -0.87583,-0.038 -1.51654,0.5854 -1.51654,1.40573 0,2.92055 -2.35899,5.29716 -5.2822,5.30138 -2.9498,0 -5.3201,-2.39594 -5.32748,-5.32405 0,-0.76719 -0.61343,-1.39337 -1.3869,-1.39337 l -5.81515,-0.004 v -4.5573 c 3.83317,-0.66083 6.68762,-3.99249 6.68762,-7.97269 0,-3.98019 -2.86745,-7.33313 -6.70821,-8.00154 v -4.47279 c -0.51518,-0.0324 -1.03122,-0.0496 -1.54741,-0.0515"
       sodipodi:nodetypes="ccssssccccscccccccsccccccccsssccccccccccscccccsccc"
       inkscape:export-filename="./path2-0-4.png"
       inkscape:export-xdpi="300"
       inkscape:export-ydpi="300" />
  </g>
</svg>
