<?xml version="1.0" encoding="UTF-8" standalone="no"?>
<!-- Created with Inkscape (http://www.inkscape.org/) -->

<svg
   width="100.77675mm"
   height="136.06453mm"
   viewBox="0 0 100.77675 136.06453"
   version="1.1"
   id="svg8"
   inkscape:version="1.2.2 (b0a8486541, 2022-12-01)"
   sodipodi:docname="oakland20-plundervolt-logo-alt.svg"
   xmlns:inkscape="http://www.inkscape.org/namespaces/inkscape"
   xmlns:sodipodi="http://sodipodi.sourceforge.net/DTD/sodipodi-0.dtd"
   xmlns="http://www.w3.org/2000/svg"
   xmlns:svg="http://www.w3.org/2000/svg"
   xmlns:rdf="http://www.w3.org/1999/02/22-rdf-syntax-ns#"
   xmlns:cc="http://creativecommons.org/ns#"
   xmlns:dc="http://purl.org/dc/elements/1.1/">
  <defs
     id="defs2" />
  <sodipodi:namedview
     id="base"
     pagecolor="#ffffff"
     bordercolor="#666666"
     borderopacity="1.0"
     inkscape:pageopacity="0.0"
     inkscape:pageshadow="2"
     inkscape:zoom="1.2055342"
     inkscape:cx="322.26377"
     inkscape:cy="341.34245"
     inkscape:document-units="mm"
     inkscape:current-layer="g8774"
     showgrid="false"
     fit-margin-top="5"
     fit-margin-left="5"
     fit-margin-right="5"
     fit-margin-bottom="5"
     inkscape:window-width="1680"
     inkscape:window-height="975"
     inkscape:window-x="0"
     inkscape:window-y="0"
     inkscape:window-maximized="1"
     inkscape:showpageshadow="2"
     inkscape:pagecheckerboard="0"
     inkscape:deskcolor="#d1d1d1" />
  <metadata
     id="metadata5">
    <rdf:RDF>
      <cc:Work
         rdf:about="">
        <dc:format>image/svg+xml</dc:format>
        <dc:type
           rdf:resource="http://purl.org/dc/dcmitype/StillImage" />
      </cc:Work>
    </rdf:RDF>
  </metadata>
  <g
     inkscape:label="Layer 1"
     inkscape:groupmode="layer"
     id="layer1"
     transform="translate(-4.3741294,-4.2031627)">
    <g
       id="g8776"
       transform="matrix(0.15552207,0,0,0.15552207,-2.2853256,-2.6314102)">
      <g
         id="g8774">
        <rect
           id="rect8691"
           style="fill:#ffffff"
           height="372.798"
           width="368.31799"
           y="178.65199"
           x="179.903" />
        <g
           id="g8695"
           transform="matrix(136.743,0,0,139.534,51.7058,735.212)">
          <path
             id="path8693"
             style="fill:#3071c0;fill-rule:nonzero"
             d="M 0.303,-0.228 V 0 H 0.066 V -0.708 H 0.37 c 0.036,0 0.071,0.004 0.106,0.011 0.035,0.008 0.066,0.021 0.093,0.039 0.027,0.019 0.049,0.043 0.066,0.073 0.017,0.031 0.025,0.069 0.025,0.115 0,0.044 -0.008,0.081 -0.025,0.112 -0.016,0.031 -0.037,0.056 -0.064,0.075 -0.027,0.019 -0.058,0.033 -0.094,0.042 -0.034,0.009 -0.07,0.013 -0.107,0.013 z m 0,-0.295 v 0.114 h 0.05 c 0.018,0 0.035,-0.004 0.05,-0.014 0.015,-0.009 0.022,-0.024 0.022,-0.045 0,-0.011 -0.002,-0.021 -0.006,-0.028 C 0.415,-0.502 0.409,-0.508 0.403,-0.512 0.396,-0.516 0.388,-0.519 0.379,-0.521 0.37,-0.522 0.362,-0.523 0.353,-0.523 Z"
             inkscape:connector-curvature="0" />
        </g>
        <g
           id="g8699"
           transform="matrix(136.743,0,0,139.534,138.401,735.212)">
          <path
             id="path8697"
             style="fill:#3071c0;fill-rule:nonzero"
             d="m 0.066,-0.708 h 0.24 v 0.503 H 0.541 V 0 H 0.066 Z"
             inkscape:connector-curvature="0" />
        </g>
        <g
           id="g8703"
           transform="matrix(136.743,0,0,139.534,203.354,735.212)">
          <path
             id="path8701"
             style="fill:#3071c0;fill-rule:nonzero"
             d="M 0.384,0.02 C 0.329,0.02 0.281,0.012 0.239,-0.003 0.199,-0.018 0.164,-0.039 0.137,-0.066 0.11,-0.093 0.089,-0.124 0.076,-0.161 0.063,-0.197 0.056,-0.236 0.056,-0.278 v -0.43 h 0.238 v 0.404 c 0,0.034 0.008,0.06 0.025,0.079 0.016,0.02 0.039,0.029 0.069,0.029 0.03,0 0.053,-0.009 0.07,-0.029 0.016,-0.019 0.024,-0.045 0.024,-0.079 v -0.404 h 0.237 v 0.43 c 0,0.042 -0.007,0.081 -0.021,0.117 C 0.683,-0.124 0.662,-0.093 0.634,-0.066 0.606,-0.039 0.571,-0.018 0.53,-0.003 0.488,0.012 0.439,0.02 0.384,0.02 Z"
             inkscape:connector-curvature="0" />
        </g>
        <g
           id="g8707"
           transform="matrix(136.743,0,0,139.534,302.493,735.212)">
          <path
             id="path8705"
             style="fill:#3071c0;fill-rule:nonzero"
             d="m 0.066,-0.708 h 0.237 l 0.202,0.359 H 0.509 L 0.499,-0.708 H 0.725 V 0 H 0.482 L 0.286,-0.338 H 0.282 L 0.292,0 H 0.066 Z"
             inkscape:connector-curvature="0" />
        </g>
        <g
           id="g8711"
           transform="matrix(136.743,0,0,139.534,403.82,735.212)">
          <path
             id="path8709"
             style="fill:#3071c0;fill-rule:nonzero"
             d="M 0.066,0 V -0.708 H 0.33 c 0.056,0 0.11,0.005 0.161,0.016 0.051,0.011 0.096,0.03 0.134,0.058 0.04,0.026 0.071,0.062 0.094,0.107 0.023,0.045 0.035,0.101 0.035,0.169 0,0.062 -0.011,0.116 -0.033,0.161 -0.023,0.045 -0.053,0.082 -0.09,0.111 -0.037,0.029 -0.08,0.051 -0.129,0.065 C 0.453,-0.007 0.403,0 0.35,0 Z m 0.229,-0.506 v 0.301 h 0.044 c 0.056,0 0.099,-0.012 0.129,-0.036 0.03,-0.025 0.045,-0.064 0.045,-0.119 0,-0.046 -0.015,-0.082 -0.045,-0.108 -0.03,-0.025 -0.07,-0.038 -0.12,-0.038 z"
             inkscape:connector-curvature="0" />
        </g>
        <g
           id="g8715"
           transform="matrix(136.743,0,0,139.534,504.736,735.212)">
          <path
             id="path8713"
             style="fill:#3071c0;fill-rule:nonzero"
             d="M 0.066,-0.708 H 0.553 V -0.51 H 0.29 v 0.061 h 0.247 v 0.185 H 0.29 v 0.066 H 0.57 V 0 H 0.066 Z"
             inkscape:connector-curvature="0" />
        </g>
        <g
           id="g8719"
           transform="matrix(136.743,0,0,139.534,580.355,735.212)">
          <path
             id="path8717"
             style="fill:#3071c0;fill-rule:nonzero"
             d="m 0.066,-0.708 h 0.305 c 0.035,0 0.069,0.003 0.103,0.01 0.035,0.007 0.066,0.02 0.093,0.037 0.027,0.018 0.048,0.042 0.065,0.071 0.017,0.03 0.025,0.067 0.025,0.112 0,0.043 -0.011,0.081 -0.032,0.114 -0.021,0.033 -0.052,0.059 -0.092,0.077 L 0.713,0 H 0.44 L 0.304,-0.253 H 0.297 V 0 H 0.066 Z m 0.229,0.299 h 0.047 c 0.008,0 0.016,-0.001 0.026,-0.002 0.01,-0.001 0.018,-0.004 0.027,-0.009 0.008,-0.004 0.015,-0.01 0.021,-0.018 0.005,-0.007 0.008,-0.017 0.008,-0.03 0,-0.013 -0.002,-0.023 -0.007,-0.03 C 0.412,-0.505 0.406,-0.511 0.399,-0.515 0.392,-0.518 0.384,-0.521 0.375,-0.522 0.367,-0.523 0.359,-0.523 0.352,-0.523 H 0.295 Z"
             inkscape:connector-curvature="0" />
        </g>
        <g
           id="g8743"
           transform="translate(-5664.58,-222.463)">
          <g
             id="g8723"
             transform="matrix(136.743,0,0,139.534,5846.89,1069.31)">
            <path
               id="path8721"
               style="fill:#3071c0;fill-rule:nonzero"
               d="M -0.016,-0.708 H 0.253 L 0.37,-0.27 H 0.374 L 0.486,-0.708 H 0.755 L 0.499,0 H 0.235 Z"
               inkscape:connector-curvature="0" />
          </g>
          <g
             id="g8727"
             transform="matrix(136.743,0,0,139.534,5939.47,1069.31)">
            <path
               id="path8725"
               style="fill:#3071c0;fill-rule:nonzero"
               d="m 0.034,-0.358 c 0,-0.057 0.01,-0.108 0.03,-0.153 0.02,-0.046 0.048,-0.085 0.083,-0.117 0.035,-0.032 0.076,-0.057 0.124,-0.074 0.048,-0.017 0.1,-0.026 0.156,-0.026 0.056,0 0.108,0.009 0.156,0.026 0.048,0.017 0.09,0.042 0.125,0.074 0.035,0.032 0.063,0.071 0.083,0.117 0.02,0.045 0.03,0.096 0.03,0.153 0,0.057 -0.01,0.108 -0.03,0.155 -0.02,0.047 -0.048,0.086 -0.083,0.119 C 0.673,-0.051 0.631,-0.025 0.583,-0.007 0.535,0.011 0.483,0.02 0.427,0.02 0.371,0.02 0.319,0.011 0.271,-0.007 0.223,-0.025 0.182,-0.051 0.147,-0.084 0.112,-0.117 0.084,-0.156 0.064,-0.203 0.044,-0.25 0.034,-0.301 0.034,-0.358 Z m 0.253,0 c 0,0.023 0.004,0.045 0.011,0.064 0.007,0.019 0.016,0.036 0.029,0.05 0.012,0.014 0.027,0.025 0.044,0.032 0.017,0.008 0.036,0.012 0.056,0.012 0.02,0 0.039,-0.004 0.056,-0.012 0.017,-0.007 0.031,-0.018 0.044,-0.032 0.013,-0.014 0.023,-0.031 0.03,-0.05 0.007,-0.019 0.01,-0.041 0.01,-0.064 0,-0.023 -0.003,-0.044 -0.01,-0.063 C 0.55,-0.44 0.54,-0.456 0.527,-0.469 0.514,-0.482 0.5,-0.492 0.483,-0.499 0.466,-0.506 0.447,-0.51 0.427,-0.51 c -0.02,0 -0.039,0.004 -0.056,0.011 -0.017,0.007 -0.032,0.017 -0.044,0.03 -0.013,0.013 -0.022,0.029 -0.029,0.048 -0.007,0.019 -0.011,0.04 -0.011,0.063 z"
               inkscape:connector-curvature="0" />
          </g>
          <g
             id="g8731"
             transform="matrix(136.743,0,0,139.534,6137,1069.31)">
            <path
               id="path8729"
               style="fill:#3071c0;fill-rule:nonzero"
               d="M 0.419,0 H 0.181 V -0.507 H 0.007 v -0.201 h 0.586 v 0.201 H 0.419 Z"
               inkscape:connector-curvature="0" />
          </g>
          <g
             id="g8741"
             transform="matrix(1.07631,0,0,1.07631,3961.74,-809.85)">
            <g
               id="g8735"
               transform="matrix(0.346887,0,0,0.353966,1887.89,1654.14)">
              <path
                 id="path8733"
                 style="fill:#fbcc00;fill-rule:nonzero"
                 d="M 263.737,409.366 415.838,156.831 c 0,0 -143.453,7.799 -143.752,8.73 C 281.859,138.211 329.017,0 330.829,0 H 210.902 l -12.167,57.938 -51.176,209.995 144.184,-11.979 z"
                 inkscape:connector-curvature="0" />
            </g>
            <g
               id="g8739"
               transform="matrix(0.567337,0.151358,0.150703,-0.564884,852.435,1793.04)">
              <path
                 id="path8737"
                 style="fill:#fbcc00"
                 d="m 1862.9,464.153 50.04,74.402 h -100.08 z"
                 inkscape:connector-curvature="0" />
            </g>
          </g>
        </g>
        <g
           id="g8747"
           transform="translate(-5664.6,-218.772)">
          <path
             id="path8745"
             style="fill:#3071c0"
             d="m 6000.56,844.711 v -36.532 h -53.36 v 36.532 h -66.66 v -36.532 h -70.59 v -68.115 h -102.53 v -66.666 h 102.53 v -53.351 h -102.53 v -66.666 h 102.53 v -53.35 h -102.53 v -66.667 h 102.53 v -68.115 h 70.59 V 262.718 h 66.66 v 102.531 h 53.36 V 262.718 h 66.66 v 102.531 h 53.35 V 262.718 h 66.67 v 102.531 h 65.64 v 68.115 h 102.53 v 66.667 h -102.53 v 53.35 h 102.53 v 66.666 h -102.53 v 53.351 h 102.53 v 66.666 h -102.53 v 68.115 h -65.64 v 36.532 h -66.67 v -36.532 h -53.35 v 36.532 z m 185.65,-412.795 h -309.59 v 309.597 h 309.59 z"
             inkscape:connector-curvature="0" />
        </g>
        <g
           id="g8751"
           transform="translate(-5115.68,-55.6174)">
          <rect
             id="rect8749"
             style="fill:#3071c0"
             height="40.021"
             width="122.231"
             y="487.85001"
             x="5423.8501" />
        </g>
        <g
           id="g8755"
           transform="matrix(0.663744,0,0,0.663744,-3603.13,-11.4481)">
          <path
             id="path8753"
             style="fill:#3071c0"
             d="m 6111.63,470.507 29.06,-29.066 28.3,28.299 -29.06,29.066 29.06,29.065 -28.3,28.3 -29.06,-29.066 -29.07,29.066 -28.3,-28.3 29.07,-29.065 -29.07,-29.066 28.3,-28.299 z"
             inkscape:connector-curvature="0" />
        </g>
        <g
           id="g8772"
           transform="matrix(1.21499,0,0,1.21487,-6994.58,-378.101)">
          <rect
             id="rect8757"
             style="fill:none"
             height="309.59698"
             width="309.59698"
             y="431.91599"
             x="5876.6201" />
          <clipPath
             id="_clip1">
            <rect
               id="rect8759"
               height="309.59698"
               width="309.59698"
               y="431.91599"
               x="5876.6201" />
          </clipPath>
          <g
             id="g8770"
             clip-path="url(#_clip1)">
            <g
               id="g8764"
               transform="matrix(0.814731,-0.803655,0.803574,0.814813,1235.93,4635.89)">
              <path
                 id="path8762"
                 style="fill:#1d1d1d"
                 d="m 5406.92,377.574 c 10.98,-22.021 110.41,-20.044 122.62,1.814 11.74,20.999 -28.41,76.54 -65.66,76.913 -35.06,-4.044 -70.91,-50.774 -56.96,-78.727 z"
                 inkscape:connector-curvature="0" />
            </g>
            <g
               id="g8768"
               transform="matrix(0.823051,0,0,0.823133,1046.53,95.4241)">
              <path
                 id="path8766"
                 style="fill:#1d1d1d"
                 d="m 6238.18,277.239 -8.52,22.697 -0.48,1.259 -0.47,1.256 -0.48,1.256 -0.48,1.254 -0.48,1.253 -0.49,1.251 -0.48,1.249 -0.49,1.249 -0.49,1.247 -0.49,1.245 -0.49,1.244 -0.5,1.243 -0.49,1.241 -0.5,1.24 -0.5,1.238 -0.5,1.237 -0.51,1.236 -0.5,1.234 -0.51,1.233 -0.51,1.231 -0.51,1.23 -0.51,1.228 -0.52,1.227 -0.51,1.226 -0.52,1.224 -0.52,1.223 -0.52,1.222 -0.52,1.22 -0.53,1.218 -0.53,1.217 -0.53,1.216 -0.53,1.214 -0.53,1.214 -0.53,1.211 -0.54,1.21 -0.54,1.209 -0.54,1.207 -0.54,1.206 -0.54,1.205 -0.55,1.203 -0.54,1.202 -0.55,1.2 -0.55,1.199 -0.55,1.198 -0.56,1.196 -0.55,1.195 -0.56,1.193 -0.56,1.193 -0.56,1.19 -0.56,1.189 -0.57,1.188 -0.57,1.187 -0.56,1.185 -0.58,1.184 -0.57,1.182 -0.57,1.181 -0.58,1.18 -0.57,1.178 -0.58,1.177 -0.58,1.175 -0.59,1.174 -0.58,1.173 -0.59,1.171 -0.59,1.17 -0.59,1.169 -0.59,1.167 -0.59,1.166 -0.6,1.164 -0.59,1.163 -0.61,1.162 -0.59,1.16 -0.61,1.159 -0.6,1.158 -0.61,1.156 -0.61,1.155 -0.61,1.154 -0.61,1.151 -0.61,1.152 -0.62,1.149 -0.61,1.148 -0.62,1.147 -0.62,1.145 -0.63,1.144 -0.62,1.143 -0.63,1.141 -0.63,1.14 -0.62,1.138 -0.64,1.137 -0.63,1.137 -0.63,1.134 -0.64,1.133 -0.64,1.132 -0.64,1.13 -0.64,1.129 -0.65,1.128 -0.64,1.127 -0.65,1.125 -0.65,1.123 -0.65,1.122 -0.65,1.122 -0.66,1.119 -0.66,1.119 -0.65,1.117 -0.66,1.115 -0.67,1.115 -0.66,1.113 -0.67,1.111 -0.66,1.111 -0.67,1.109 -0.67,1.107 -0.68,1.107 -0.67,1.105 -0.68,1.103 -0.68,1.103 -0.68,1.1 -0.68,1.1 -0.68,1.099 -0.69,1.097 -0.69,1.095 -0.69,1.095 -0.69,1.093 -0.69,1.092 -0.69,1.09 -0.7,1.089 -0.7,1.088 -0.7,1.086 -0.7,1.085 -0.7,1.084 -0.71,1.082 -0.7,1.082 -0.71,1.08 -0.72,1.078 -0.71,1.077 -0.71,1.076 -0.72,1.075 -0.72,1.073 -0.71,1.072 -0.73,1.071 -0.72,1.069 -0.73,1.068 -0.72,1.067 -0.73,1.065 -0.73,1.065 -0.73,1.062 -0.74,1.062 -0.73,1.06 -0.74,1.059 -0.74,1.058 -0.74,1.056 -0.74,1.055 -0.75,1.054 -0.75,1.053 -0.74,1.051 -0.76,1.049 -0.75,1.049 -0.75,1.047 -0.76,1.046 -0.75,1.045 -0.76,1.044 -0.76,1.042 -0.77,1.041 -0.76,1.039 -0.77,1.039 -0.76,1.037 -0.78,1.035 -0.77,1.035 -0.77,1.033 -0.77,1.032 -0.78,1.03 -0.78,1.03 -0.78,1.028 -0.78,1.027 -0.79,1.025 -0.79,1.025 -0.78,1.022 -0.79,1.022 -0.79,1.021 -0.8,1.019 -0.79,1.018 -0.8,1.016 -0.8,1.016 -0.8,1.014 -0.8,1.013 -0.8,1.011 -0.81,1.011 -0.81,1.009 -0.8,1.008 -0.82,1.006 -0.81,1.005 -0.81,1.005 -0.82,1.002 -0.82,1.002 -0.82,1 -0.82,0.999 -0.82,0.998 -0.83,0.996 -0.83,0.996 -0.82,0.994 -0.83,0.993 -0.84,0.991 -0.83,0.991 -0.84,0.989 -0.84,0.987 -0.84,0.987 -0.84,0.985 -0.84,0.984 -0.84,0.983 -0.85,0.982 -0.85,0.98 -0.85,0.98 -0.85,0.978 -0.86,0.976 -0.85,0.976 -0.86,0.974 -0.86,0.973 -0.86,0.972 -0.86,0.97 -0.87,0.97 -0.86,0.968 -0.87,0.967 -0.87,0.966 -0.87,0.964 -0.88,0.963 -0.87,0.962 -0.88,0.961 -0.88,0.96 -0.88,0.958 -0.88,0.957 -0.88,0.956 -0.89,0.955 -0.89,0.954 -0.88,0.952 -0.9,0.951 -0.89,0.95 -0.89,0.949 -0.9,0.947 -0.9,0.946 -0.9,0.946 -0.9,0.944 -0.9,0.942 -0.91,0.942 -0.9,0.94 -0.91,0.939 -0.92,0.938 -0.91,0.937 -0.91,0.935 -0.92,0.935 -0.91,0.933 -0.92,0.932 -0.93,0.931 -0.92,0.929 -0.92,0.929 -0.93,0.927 -0.93,0.926 -0.93,0.925 -0.93,0.924 -0.93,0.922 -0.94,0.922 -0.94,0.92 -0.93,0.919 -0.95,0.918 -0.94,0.916 -0.94,0.916 -0.95,0.914 -0.95,0.913 -0.94,0.912 -0.96,0.911 -0.95,0.91 -0.95,0.908 -0.96,0.908 -0.96,0.906 -0.96,0.905 -0.96,0.904 -0.96,0.903 -0.97,0.901 -0.97,0.9 -0.97,0.9 -0.97,0.898 -0.97,0.897 -0.97,0.895 -0.98,0.895 -0.98,0.894 -0.98,0.892 -0.98,0.891 -0.98,0.89 -0.99,0.889 -0.98,0.888 -0.99,0.887 -0.99,0.885 -0.99,0.885 -1,0.883 -0.99,0.882 -1,0.881 -1,0.88 -1,0.879 -1,0.877 -1,0.877 -1.01,0.875 -1.01,0.874 -1.01,0.873 -1.01,0.872 -1.01,0.871 -1.01,0.87 -1.02,0.869 -1.02,0.867 -1.02,0.867 -1.02,0.865 -1.02,0.864 -1.03,0.863 -1.03,0.862 -1.02,0.861 -1.04,0.86 -1.03,0.858 -1.03,0.858 -1.04,0.856 -1.03,0.856 -1.04,0.854 -1.04,0.853 -1.05,0.852 -1.04,0.851 -1.05,0.85 -1.05,0.849 -1.05,0.847 -1.05,0.847 -1.05,0.845 -1.06,0.845 -1.05,0.843 -1.06,0.842 -1.06,0.841 -1.06,0.841 -1.07,0.839 -1.06,0.838 -1.07,0.836 -1.07,0.836 -1.07,0.835 -1.07,0.833 -1.08,0.833 -1.07,0.831 -1.08,0.831 -1.08,0.829 -1.08,0.829 -1.08,0.827 -1.09,0.826 -1.09,0.825 -1.08,0.824 -1.09,0.823 -1.1,0.822 -1.09,0.821 -1.09,0.82 -1.1,0.818 -1.1,0.818 -1.1,0.817 -1.1,0.815 -1.11,0.815 -1.1,0.813 -1.11,0.813 -1.11,0.811 -1.11,0.811 -1.11,0.809 -1.12,0.808 -1.11,0.808 -1.12,0.806 -1.12,0.805 -1.12,0.804 -1.13,0.803 -1.12,0.802 -1.13,0.802 -1.13,0.799 -1.13,0.8 -1.13,0.798 -1.13,0.797 -1.14,0.795 -1.13,0.795 -1.14,0.794 -1.15,0.793 -1.14,0.792 -1.14,0.791 -1.15,0.79 -1.15,0.789 -1.14,0.787 -1.15,0.787 -1.16,0.786 -1.15,0.785 -1.16,0.784 -1.16,0.783 -1.16,0.781 -1.16,0.781 -1.16,0.78 -1.17,0.779 -1.16,0.778 -1.17,0.777 -1.17,0.775 -1.18,0.775 -1.17,0.774 -1.17,0.773 -1.18,0.772 -1.18,0.771 -1.18,0.77 -1.18,0.769 -1.19,0.768 -1.18,0.766 -1.19,0.766 -1.19,0.766 -1.19,0.764 -1.2,0.763 -1.19,0.762 -1.2,0.761 -1.2,0.76 -1.2,0.759 -1.2,0.758 -1.2,0.758 -1.21,0.756 -1.2,0.755 -1.21,0.755 -1.21,0.753 -1.21,0.753 -1.22,0.751 -1.22,0.751 -1.21,0.749 -1.22,0.749 -1.22,0.748 -1.23,0.746 -1.22,0.746 -1.23,0.745 -1.22,0.744 -1.23,0.743 -1.23,0.742 -1.24,0.741 -1.23,0.74 -1.24,0.74 -1.24,0.738 -1.24,0.737 -1.24,0.737 -1.24,0.735 -1.25,0.735 -1.24,0.733 -1.25,0.733 -1.25,0.732 -1.26,0.731 -1.25,0.73 -1.26,0.729 -1.25,0.728 -1.26,0.727 -1.26,0.726 -1.27,0.726 -1.26,0.724 -1.27,0.724 -1.27,0.722 -1.27,0.722 -1.27,0.721 -1.27,0.72 -1.28,0.719 -1.27,0.718 -1.28,0.717 -1.28,0.717 -1.28,0.715 -1.29,0.714 -1.28,0.714 -1.29,0.713 -1.29,0.712 -1.29,0.711 -1.29,0.71 -1.29,0.709 -1.3,0.708 -1.3,0.708 -1.3,0.706 -1.3,0.706 -1.3,0.705 -1.31,0.703 -1.3,0.703 -1.31,0.703 -1.31,0.701 -1.31,0.7 -1.31,0.7 -1.32,0.698 -1.32,0.698 -1.32,0.697 -1.32,0.696 -1.32,0.695 -1.32,0.695 -1.33,0.693 -1.32,0.693 -1.33,0.691 -1.33,0.691 -1.34,0.691 -1.33,0.689 -1.34,0.688 -1.33,0.687 -1.34,0.687 -1.34,0.686 -1.35,0.685 -1.34,0.684 -1.35,0.683 -1.35,0.683 -1.35,0.681 -1.35,0.681 -1.35,0.68 -1.36,0.679 -1.35,0.678 -1.36,0.678 -1.36,0.676 -1.37,0.676 -1.36,0.675 -1.37,0.674 -1.36,0.673 -1.37,0.673 -1.37,0.671 -1.38,0.671 -1.37,0.67 -1.38,0.669 -21.98,10.666 -20.01,-41.238 21.97,-10.656 1.34,-0.649 1.33,-0.651 1.33,-0.65 1.33,-0.652 1.33,-0.653 1.33,-0.653 1.32,-0.654 1.33,-0.655 1.32,-0.655 1.32,-0.656 1.31,-0.657 1.32,-0.658 1.31,-0.658 1.31,-0.659 1.32,-0.66 1.3,-0.661 1.31,-0.661 1.31,-0.662 1.3,-0.663 1.3,-0.664 1.3,-0.664 1.3,-0.665 1.29,-0.666 1.3,-0.667 1.29,-0.667 1.29,-0.668 1.29,-0.669 1.28,-0.67 1.29,-0.67 1.28,-0.671 1.28,-0.672 1.28,-0.673 1.28,-0.674 1.27,-0.674 1.28,-0.675 1.27,-0.675 1.27,-0.677 1.27,-0.677 1.26,-0.678 1.27,-0.679 1.26,-0.68 1.26,-0.68 1.26,-0.681 1.26,-0.682 1.26,-0.683 1.25,-0.684 1.25,-0.684 1.25,-0.685 1.25,-0.686 1.25,-0.687 1.24,-0.687 1.24,-0.688 1.24,-0.689 1.24,-0.69 1.24,-0.691 1.24,-0.691 1.23,-0.692 1.23,-0.693 1.23,-0.694 1.23,-0.694 1.23,-0.696 1.22,-0.696 1.23,-0.697 1.22,-0.698 1.21,-0.698 1.22,-0.699 1.22,-0.701 1.21,-0.701 1.21,-0.701 1.22,-0.703 1.2,-0.703 1.21,-0.704 1.2,-0.705 1.21,-0.706 1.2,-0.707 1.2,-0.707 1.19,-0.709 1.2,-0.709 1.2,-0.71 1.19,-0.71 1.19,-0.712 1.19,-0.712 1.18,-0.713 1.19,-0.714 1.18,-0.715 1.18,-0.716 1.18,-0.716 1.18,-0.718 1.17,-0.718 1.18,-0.719 1.17,-0.72 1.17,-0.72 1.17,-0.722 1.17,-0.722 1.16,-0.723 1.16,-0.724 1.17,-0.725 1.16,-0.726 1.15,-0.726 1.16,-0.727 1.15,-0.728 1.16,-0.729 1.15,-0.73 1.14,-0.731 1.15,-0.732 1.15,-0.732 1.14,-0.733 1.14,-0.734 1.14,-0.735 1.14,-0.736 1.14,-0.737 1.13,-0.737 1.13,-0.739 1.13,-0.739 1.13,-0.74 1.13,-0.741 1.12,-0.742 1.13,-0.743 1.12,-0.743 1.12,-0.744 1.12,-0.746 1.11,-0.746 1.12,-0.747 1.11,-0.748 1.11,-0.749 1.11,-0.749 1.11,-0.751 1.1,-0.751 1.11,-0.752 1.1,-0.754 1.1,-0.754 1.1,-0.755 1.09,-0.755 1.1,-0.757 1.09,-0.758 1.09,-0.758 1.09,-0.759 1.09,-0.76 1.08,-0.762 1.09,-0.761 1.08,-0.763 1.08,-0.764 1.08,-0.765 1.08,-0.765 1.07,-0.767 1.07,-0.767 1.07,-0.768 1.07,-0.769 1.07,-0.77 1.07,-0.771 1.06,-0.772 1.06,-0.773 1.07,-0.773 1.05,-0.775 1.06,-0.776 1.06,-0.776 1.05,-0.777 1.05,-0.778 1.05,-0.78 1.05,-0.779 1.05,-0.781 1.04,-0.782 1.04,-0.783 1.04,-0.784 1.04,-0.784 1.04,-0.786 1.04,-0.786 1.03,-0.788 1.03,-0.788 1.03,-0.789 1.03,-0.79 1.03,-0.791 1.02,-0.792 1.03,-0.793 1.02,-0.794 1.02,-0.795 1.01,-0.795 1.02,-0.797 1.01,-0.798 1.02,-0.798 1.01,-0.8 1.01,-0.8 1,-0.802 1.01,-0.802 1,-0.803 1,-0.804 1,-0.805 1,-0.806 1,-0.807 0.99,-0.808 1,-0.809 0.99,-0.81 0.99,-0.811 0.98,-0.812 0.99,-0.813 0.98,-0.813 0.99,-0.815 0.98,-0.816 0.98,-0.816 0.97,-0.818 0.98,-0.818 0.97,-0.82 0.97,-0.82 0.97,-0.822 0.97,-0.822 0.97,-0.823 0.96,-0.825 0.96,-0.825 0.97,-0.826 0.96,-0.827 0.95,-0.828 0.96,-0.83 0.95,-0.83 0.95,-0.831 0.95,-0.832 0.95,-0.833 0.95,-0.834 0.95,-0.835 0.94,-0.837 0.94,-0.837 0.94,-0.838 0.94,-0.839 0.93,-0.84 0.94,-0.841 0.93,-0.842 0.93,-0.843 0.93,-0.844 0.93,-0.845 0.92,-0.846 0.93,-0.847 0.92,-0.848 0.92,-0.849 0.92,-0.85 0.92,-0.851 0.91,-0.852 0.92,-0.854 0.91,-0.854 0.91,-0.854 0.91,-0.857 0.9,-0.857 0.91,-0.858 0.9,-0.859 0.9,-0.86 0.9,-0.862 0.9,-0.862 0.89,-0.863 0.9,-0.864 0.89,-0.865 0.89,-0.867 0.89,-0.867 0.89,-0.869 0.88,-0.869 0.89,-0.871 0.88,-0.871 0.88,-0.873 0.88,-0.873 0.87,-0.875 0.88,-0.875 0.87,-0.877 0.87,-0.878 0.87,-0.879 0.87,-0.88 0.87,-0.88 0.86,-0.882 0.87,-0.883 0.86,-0.884 0.85,-0.885 0.86,-0.886 0.86,-0.888 0.85,-0.888 0.85,-0.889 0.86,-0.891 0.84,-0.891 0.85,-0.893 0.85,-0.893 0.84,-0.894 0.84,-0.896 0.84,-0.897 0.84,-0.898 0.84,-0.899 0.83,-0.9 0.84,-0.901 0.83,-0.902 0.83,-0.903 0.82,-0.904 0.83,-0.906 0.83,-0.906 0.82,-0.908 0.82,-0.908 0.82,-0.91 0.82,-0.911 0.81,-0.912 0.82,-0.913 0.81,-0.914 0.81,-0.915 0.81,-0.916 0.81,-0.918 0.8,-0.918 0.8,-0.919 0.81,-0.921 0.8,-0.922 0.8,-0.923 0.79,-0.924 0.8,-0.925 0.79,-0.926 0.79,-0.927 0.79,-0.929 0.79,-0.929 0.79,-0.931 0.78,-0.932 0.79,-0.932 0.78,-0.934 0.78,-0.936 0.78,-0.936 0.77,-0.937 0.78,-0.939 0.77,-0.939 0.77,-0.941 0.77,-0.942 0.77,-0.943 0.76,-0.944 0.77,-0.945 0.76,-0.947 0.76,-0.947 0.76,-0.949 0.76,-0.95 0.75,-0.951 0.76,-0.952 0.75,-0.953 0.75,-0.955 0.75,-0.955 0.75,-0.957 0.74,-0.958 0.75,-0.959 0.74,-0.96 0.74,-0.961 0.74,-0.963 0.73,-0.963 0.74,-0.965 0.73,-0.966 0.73,-0.967 0.73,-0.969 0.73,-0.969 0.73,-0.971 0.72,-0.972 0.73,-0.973 0.72,-0.974 0.72,-0.975 0.72,-0.977 0.71,-0.978 0.72,-0.978 0.71,-0.981 0.71,-0.981 0.71,-0.982 0.71,-0.984 0.71,-0.985 0.7,-0.986 0.7,-0.987 0.7,-0.988 0.7,-0.99 0.7,-0.991 0.7,-0.992 0.69,-0.993 0.7,-0.994 0.69,-0.996 0.69,-0.997 0.68,-0.998 0.69,-0.999 0.68,-1.001 0.69,-1.002 0.68,-1.002 0.68,-1.004 0.67,-1.006 0.68,-1.006 0.67,-1.008 0.68,-1.009 0.67,-1.01 0.66,-1.012 0.67,-1.013 0.67,-1.013 0.66,-1.015 0.66,-1.017 0.66,-1.018 0.66,-1.018 0.66,-1.02 0.66,-1.022 0.65,-1.022 0.65,-1.024 0.65,-1.025 0.65,-1.026 0.65,-1.028 0.64,-1.029 0.65,-1.03 0.64,-1.031 0.64,-1.033 0.64,-1.034 0.64,-1.035 0.63,-1.036 0.63,-1.038 0.64,-1.039 0.63,-1.04 0.63,-1.041 0.62,-1.043 0.63,-1.044 0.62,-1.045 0.62,-1.046 0.62,-1.048 0.62,-1.049 0.62,-1.051 0.61,-1.051 0.62,-1.053 0.61,-1.054 0.61,-1.056 0.61,-1.057 0.6,-1.058 0.61,-1.059 0.6,-1.061 0.6,-1.062 0.6,-1.063 0.6,-1.064 0.6,-1.066 0.59,-1.067 0.6,-1.069 0.59,-1.07 0.59,-1.071 0.59,-1.072 0.58,-1.074 0.59,-1.075 0.58,-1.076 0.58,-1.077 0.58,-1.079 0.58,-1.081 0.58,-1.081 0.57,-1.083 0.58,-1.085 0.57,-1.085 0.57,-1.087 0.57,-1.088 0.56,-1.09 0.57,-1.091 0.56,-1.092 0.56,-1.093 0.56,-1.095 0.56,-1.097 0.56,-1.097 0.55,-1.099 0.56,-1.1 0.55,-1.102 0.55,-1.103 0.54,-1.104 0.55,-1.106 0.55,-1.107 0.54,-1.108 0.54,-1.11 0.54,-1.111 0.54,-1.112 0.54,-1.114 0.53,-1.116 0.53,-1.116 0.54,-1.118 0.53,-1.119 0.52,-1.121 0.53,-1.122 0.52,-1.123 0.53,-1.125 0.52,-1.126 0.52,-1.128 0.52,-1.129 0.51,-1.13 0.52,-1.132 0.51,-1.133 0.51,-1.134 0.51,-1.136 0.51,-1.138 0.51,-1.138 0.5,-1.141 0.51,-1.141 0.5,-1.143 0.5,-1.144 0.5,-1.146 0.49,-1.147 0.5,-1.148 0.49,-1.15 0.49,-1.151 0.49,-1.153 0.49,-1.154 0.49,-1.156 0.48,-1.157 0.49,-1.158 0.48,-1.16 0.48,-1.161 0.48,-1.163 0.47,-1.164 0.48,-1.166 0.47,-1.167 0.47,-1.168 0.47,-1.17 0.47,-1.171 0.47,-1.173 0.46,-1.174 0.47,-1.175 0.46,-1.177 0.46,-1.179 0.46,-1.18 0.45,-1.181 0.46,-1.183 0.45,-1.184 0.45,-1.186 0.46,-1.187 0.44,-1.188 8.51,-22.662 z"
                 inkscape:connector-curvature="0" />
            </g>
          </g>
        </g>
      </g>
    </g>
  </g>
</svg>
