<?xml version="1.0" encoding="UTF-8" standalone="no"?>
<!-- Created with Inkscape (http://www.inkscape.org/) -->

<svg
   version="1.1"
   id="svg2"
   width="356.21957"
   height="337.18759"
   viewBox="0 0 356.21957 337.18759"
   sodipodi:docname="badram.svg"
   inkscape:version="1.2.2 (b0a8486541, 2022-12-01)"
   inkscape:export-filename="badram.png"
   inkscape:export-xdpi="300"
   inkscape:export-ydpi="300"
   xmlns:inkscape="http://www.inkscape.org/namespaces/inkscape"
   xmlns:sodipodi="http://sodipodi.sourceforge.net/DTD/sodipodi-0.dtd"
   xmlns="http://www.w3.org/2000/svg"
   xmlns:svg="http://www.w3.org/2000/svg">
  <defs
     id="defs6" />
  <sodipodi:namedview
     id="namedview4"
     pagecolor="#ffffff"
     bordercolor="#666666"
     borderopacity="1.0"
     inkscape:showpageshadow="2"
     inkscape:pageopacity="1"
     inkscape:pagecheckerboard="0"
     inkscape:deskcolor="#d1d1d1"
     showgrid="false"
     inkscape:zoom="1.8237072"
     inkscape:cx="132.14841"
     inkscape:cy="162.03259"
     inkscape:window-width="1680"
     inkscape:window-height="979"
     inkscape:window-x="0"
     inkscape:window-y="0"
     inkscape:window-maximized="1"
     inkscape:current-layer="g8" />
  <g
     inkscape:groupmode="layer"
     inkscape:label="Image"
     id="g8"
     transform="translate(-86.663201,-71.333593)">
    <path
       style="fill:#000000"
       d="m 101.21905,406.06663 -2.454542,-2.45454 v -25.04546 c 0,-23.71212 -0.10647,-25.15192 -2,-27.04545 -1.33333,-1.33333 -3.33333,-2 -6,-2 h -3.999997 v -6 -6 h 4.076917 c 8.73166,0 13.328132,-10.32222 7.28672,-16.36364 -2.01791,-2.01791 -3.62918,-2.63636 -6.86856,-2.63636 h -4.232197 l -0.18209,-9 -0.1821,-9 4.800647,-0.004 c 9.123742,-0.007 15.290112,-6.29499 15.296922,-15.59838 0.007,-8.88042 -6.65154,-15.39762 -15.730662,-15.39762 H 86.764511 V 252.6704 c 0,-18.55267 0.76901,-22.39724 4.814897,-24.07146 1.81132,-0.74954 12.063272,-1.02433 31.503902,-0.84444 l 28.8188,0.26668 0.1812,45 c 0.1799,44.67696 0.19774,45.03589 2.48481,50 2.88873,6.26998 6.55982,10.22598 11.69639,12.60414 4.45375,2.06201 13.6358,2.73577 10,0.73377 -4.1053,-2.26052 -8.81859,-7.49347 -11.11269,-12.33791 l -2.36777,-5 -0.01,-55.75 c -0.009,-52.41921 -0.11432,-55.75088 -1.75977,-55.76473 -3.58784,-0.0302 -26.09827,-8.20484 -35.84056,-13.01548 -15.72635,-7.76551 -22.24265,-15.14747 -17.77796,-20.13967 4.99595,-5.58624 22.41229,-9.14119 53.72452,-10.96604 l 20.50181,-1.19482 0.67989,-5.08463 c 2.50713,-18.74981 10.58498,-45.15405 18.56933,-60.697932 11.09665,-21.602898 20.97028,-28.740098 32.31302,-23.357608 2.04089,0.96846 8.06878,6.45259 13.39533,12.18695 10.82732,11.656048 13.20272,13.283958 19.38383,13.283958 4.17334,0 4.6357,-0.34593 15.90415,-11.89907 6.38321,-6.544488 13.0715,-12.656988 14.86285,-13.583338 4.8228,-2.49396 11.44107,-2.17576 15.8828,0.76364 13.37039,8.8481 28.07335,42.48915 34.67804,79.34493 l 1.63544,9.12615 13.16887,0.68729 c 28.18226,1.47084 49.8468,4.53257 56.53129,7.98925 6.64669,3.43714 7.14549,7.93053 1.51989,13.69168 -5.26397,5.39079 -23.77772,14.46511 -39.57235,19.39597 l -12.69004,3.96165 -0.30996,55.51092 c -0.30527,54.67096 -0.34262,55.57146 -2.46838,59.51093 -4.08328,7.56719 -10.46813,11.91897 -19.54481,13.32137 l -5.29677,0.81838 5.93867,1.29019 c 10.47876,2.27654 19.52922,-0.43963 25.49333,-7.65092 5.8646,-7.09097 6.068,-9.05054 6.068,-58.46052 v -44.8185 h 29.88922 c 27.92717,0 30.04418,0.12536 32.25,1.90968 2.30881,1.86763 2.36759,2.32673 2.66992,20.85399 l 0.30913,18.94432 -5.5523,0.57305 c -6.506,0.67147 -10.6474,3.26344 -12.94268,8.1004 -5.07175,10.6879 2.0621,22.61856 13.52459,22.61856 h 4.85212 v 9 9 h -3.06574 c -6.12053,0 -9.85314,3.46566 -9.90246,9.19424 -0.0445,5.16981 3.25711,8.76657 8.71976,9.49926 l 4.24844,0.56984 v 5.86833 5.86833 h -3.84501 c -7.05717,0 -7.15499,0.38836 -7.15499,28.40566 v 24.74819 l -2.92308,2.92307 -2.92307,2.92308 H 264.79598 103.6736 Z m 319.03997,-19.30607 c 0.38467,-5.64334 0.38658,-12.95584 0.004,-16.25 -0.57726,-4.97596 -1.01667,-5.98938 -2.5967,-5.98938 -1.77852,0 -1.90181,0.9076 -1.90181,14 v 14 l -150.25,9.4e-4 -150.25,9.3e-4 v -13.75093 c 0,-13.49889 -0.0412,-13.7568 -2.25,-14.07049 l -2.25,-0.31955 -3e-5,16.31955 -2e-5,16.31955 H 265.16204 419.55963 Z M 133.26451,375.52118 v -10.5 l -3.25,-0.31336 -3.25,-0.31336 v 10.39669 c 0,5.71819 0.32066,10.71736 0.71258,11.10927 0.39191,0.39192 1.85441,0.57942 3.25,0.41667 2.53667,-0.29582 2.53742,-0.29903 2.53742,-10.79591 z m 14.28383,-0.25 0.28383,-10.75 h -2.91151 -2.91151 l -0.47792,9.25 c -0.53059,10.26929 0.25005,13.03061 3.55094,12.56068 2.06775,-0.29437 2.19724,-0.87516 2.46617,-11.06068 z m 14.72806,10.23077 c 0.78438,-1.26916 1.43146,-17.96483 0.7637,-19.70497 -0.26926,-0.70169 -1.79142,-1.2758 -3.38258,-1.2758 h -2.89301 v 10.33333 c 0,5.68334 0.3,10.63334 0.66667,11 1.01975,1.01976 4.13727,0.79291 4.84522,-0.35256 z m 16.27194,-10.23077 0.28383,-10.75 h -2.92684 c -3.71129,0 -4.14082,1.18065 -4.14082,11.38179 0,8.71489 0.94842,10.91388 4.48832,10.40653 1.85219,-0.26546 2.03418,-1.14058 2.29551,-11.03832 z m 15.01617,10.05 c 1.25292,-1.25292 1.7169,-16.28941 0.59301,-19.21821 -0.35994,-0.938 -1.78444,-1.58179 -3.5,-1.58179 h -2.89301 v 10.33333 c 0,5.68334 0.3,10.63334 0.66667,11 1.06133,1.06133 3.8259,0.7741 5.13333,-0.53333 z m 14.98383,-10.05 0.28383,-10.75 h -3.03383 -3.03383 v 10.33333 c 0,5.68334 0.31898,10.65232 0.70885,11.04219 0.38987,0.38986 1.62737,0.57736 2.75,0.41666 1.88942,-0.27046 2.06225,-1.0913 2.32498,-11.04218 z m 18,0 0.28383,-10.75 h -3.03383 -3.03383 l -0.11535,7.75 c -0.0634,4.2625 -0.18737,8.425 -0.2754,9.25 -0.3034,2.84341 1.45987,5.13079 3.70841,4.81068 2.06775,-0.29437 2.19724,-0.87516 2.46617,-11.06068 z m 17.00067,-0.0659 0.2845,-10.81593 -3.2845,0.31593 -3.2845,0.31593 -0.28984,9.42498 c -0.3489,11.34542 -0.0635,12.30581 3.53415,11.89199 l 2.75569,-0.317 0.2845,-10.81593 z m 14,0 0.2845,-10.81593 -3.2845,0.31593 -3.2845,0.31593 -0.28984,9.42498 c -0.3489,11.34542 -0.0635,12.30581 3.53415,11.89199 l 2.75569,-0.317 0.2845,-10.81593 z m 28,0 0.2845,-10.81593 -3.2845,0.31593 -3.2845,0.31593 -0.28886,9.35072 c -0.3104,10.04823 0.54137,12.47047 4.20135,11.94754 1.94895,-0.27846 2.10639,-1.01615 2.37201,-11.11419 z m 13.7155,0.3159 v -10.5 l -3.25,-0.31336 -3.25,-0.31336 v 10.39669 c 0,5.71819 0.32066,10.71736 0.71258,11.10927 0.39191,0.39192 1.85441,0.57942 3.25,0.41667 2.53667,-0.29582 2.53742,-0.29903 2.53742,-10.79591 z m 15.29827,9.25 c 0.47775,-0.9625 0.72974,-5.35 0.55999,-9.75 -0.16976,-4.4 -0.31982,-8.5625 -0.33346,-9.25 -0.0142,-0.71671 -1.30469,-1.25 -3.0248,-1.25 h -3 v 10.33333 c 0,5.68334 0.3,10.63334 0.66667,11 1.28235,1.28235 4.27048,0.65153 5.1316,-1.08333 z m 16.00173,0.55 c 1.25292,-1.25292 1.7169,-16.28941 0.59301,-19.21821 -0.35994,-0.938 -1.78444,-1.58179 -3.5,-1.58179 h -2.89301 v 10.33333 c 0,5.68334 0.3,10.63334 0.66667,11 1.06133,1.06133 3.8259,0.7741 5.13333,-0.53333 z m 16.98383,-10.05 0.28383,-10.75 h -2.9172 c -3.52613,0 -3.8344,0.89848 -3.95412,11.52463 -0.0952,8.44587 0.85218,10.75426 4.21615,10.27363 1.94797,-0.27832 2.10648,-1.01684 2.37134,-11.04826 z m 14,0 0.28383,-10.75 h -3.03383 -3.03383 v 10.33333 c 0,5.68334 0.31898,10.65232 0.70885,11.04219 0.38987,0.38986 1.62737,0.57736 2.75,0.41666 1.88942,-0.27046 2.06225,-1.0913 2.32498,-11.04218 z m 16,0 0.28383,-10.75 h -2.96035 -2.96036 l -0.34401,8.75 c -0.41867,10.64939 0.33653,13.51136 3.44867,13.06934 2.15117,-0.30553 2.26066,-0.78417 2.53222,-11.06934 z m 14,0 0.28383,-10.75 h -2.9172 c -3.52771,0 -4.11737,1.61294 -4.13681,11.31574 -0.016,7.98795 1.19372,10.93774 4.30401,10.49494 2.06775,-0.29437 2.19724,-0.87516 2.46617,-11.06068 z m 15.00067,-0.0659 0.2845,-10.81593 -3.2845,0.31593 -3.2845,0.31593 -0.28823,9.91736 c -0.30403,10.4611 0.22428,11.858 4.28823,11.33837 1.84065,-0.23535 2.02267,-1.1175 2.2845,-11.07166 z M 114.28443,357.54155 c -0.15389,-2.08877 -1.51992,-4.12789 -1.51992,-2.26882 0,0.59668 -0.27314,1.79668 -0.60699,2.66666 -0.3803,0.99105 -0.0693,1.58179 0.83288,1.58179 0.81738,0 1.37682,-0.85584 1.29403,-1.97963 z m 303.72483,-0.52037 c -0.26285,-1.375 -0.65044,-2.5 -0.86133,-2.5 -0.21088,0 -0.38342,1.125 -0.38342,2.5 0,1.375 0.3876,2.5 0.86133,2.5 0.47373,0 0.64627,-1.125 0.38342,-2.5 z m -285.94935,-21.75 c 2.6473,-1.97247 3.19041,-6.94477 1.03707,-9.49472 -2.98574,-3.53569 -6.79396,-3.8847 -9.78215,-0.89651 -2.9076,2.9076 -3.25403,6.19152 -0.99362,9.41872 1.76558,2.52072 6.96407,3.03984 9.7387,0.97251 z m 269.95936,-0.5 c 5.01505,-5.60884 -0.94172,-14.59461 -7.41403,-11.18404 -1.2874,0.6784 -2.67134,1.72858 -3.07542,2.33374 -1.24134,1.85909 -0.84646,6.03943 0.79139,8.37779 1.93161,2.75776 7.41583,3.02496 9.69806,0.47251 z m -89.46991,-27 c -0.46309,-17.13692 -1.71405,-21.05275 -9.32495,-29.18941 -7.12002,-7.61188 -9.29593,-8.06235 -38.88804,-8.05082 -24.15213,0.009 -25.25555,0.0953 -30.07914,2.34154 -5.78712,2.69493 -10.79452,7.97782 -13.78721,14.54576 -1.76097,3.86472 -2.1605,7.04871 -2.49117,19.85293 l -0.39384,15.25 h 47.68147 47.68146 z m -86.58485,5.55 c -0.66,-0.66 -1.2,-1.62615 -1.2,-2.14701 0,-1.96804 7.29476,-9.74143 11.39852,-12.14639 12.29897,-7.20767 37.23495,-8.60434 51.99022,-2.91198 5.96134,2.29979 12.39951,7.12828 15.25199,11.43867 2.31504,3.49826 2.42067,4.04817 1.04237,5.42647 -1.3783,1.3783 -2.26569,1.18294 -8.75672,-1.9278 -11.00956,-5.27619 -19.87197,-6.89341 -34.30905,-6.26074 -12.82619,0.56207 -20.90058,2.56363 -29.49328,7.31108 -5.14412,2.84211 -4.44363,2.69812 -5.92405,1.2177 z m 6.3685,-57.31655 c 4.48566,-1.37944 11.50903,-5.92467 10.39242,-6.72552 -7.68507,-5.5119 -12.18836,-7.70658 -13.916,-6.78197 -5.4271,2.9045 -11.04492,-0.17895 -11.04492,-6.06222 0,-2.1869 -1.33313,-3.52288 -7.75,-7.76651 l -7.75,-5.12527 -0.58953,4.15689 c -1.69914,11.98086 5.79219,25.07277 16.20501,28.32003 5.79334,1.80667 8.53745,1.80374 14.45302,-0.0154 z m 83.699,-1.69394 c 4.90636,-2.71391 10.24254,-9.36411 11.68689,-14.56477 1.1109,-4 1.42398,-14.51303 0.46089,-15.47613 -0.3216,-0.3216 -3.86671,1.5159 -7.87803,4.08333 -6.35246,4.06587 -7.37158,5.13005 -7.90012,8.24935 -1.01527,5.99195 -5.78264,8.72031 -10.87404,6.22322 -2.5422,-1.24683 -3.12911,-1.08192 -8.25,2.31816 -3.0322,2.01327 -5.51309,4.01614 -5.51309,4.45082 0,0.43467 1.39039,1.78036 3.08975,2.99042 7.41667,5.28113 17.50044,5.97224 25.17775,1.7256 z m -183.58195,-5.96382 c 1.27295,-1.19588 2.31445,-3.24133 2.31445,-4.54546 0,-2.93135 -4.18148,-7.28023 -7,-7.28023 -2.698,0 -7,4.302 -7,7 0,2.75927 4.3256,7 7.14009,7 1.22706,0 3.27251,-0.97844 4.54546,-2.17431 z m 269.31445,0.17431 c 4.12982,-4.12982 1.17851,-12 -4.5,-12 -1.375,0 -3.4,0.9 -4.5,2 -4.12982,4.12982 -1.17851,12 4.5,12 1.375,0 3.4,-0.9 4.5,-2 z m -94,-39.45452 c 5.775,-0.84777 14.1,-2.26685 18.5,-3.1535 8.24576,-1.66162 25.37964,-6.99288 26.80459,-8.34033 0.65106,-0.61565 -0.94491,-13.83525 -1.79029,-14.8292 -0.12983,-0.15265 -4.23616,1.05786 -9.12518,2.69002 -20.41629,6.81581 -45.35397,10.08753 -76.88912,10.08753 -34.04766,0 -63.48847,-4.38362 -85.07581,-12.66746 -0.82368,-0.31608 -1.63242,1.84902 -2.49627,6.6828 -1.51535,8.4794 -2.12593,7.79196 10.57208,11.90277 13.63392,4.4138 27.06053,6.7722 54,9.48518 9.22532,0.92905 55.44652,-0.38194 65.5,-1.85781 z M 255.02793,86.545528 c -8.08911,-5.411138 -8.45801,-6.167968 -2.56498,-5.262288 6.39503,0.98284 19.60069,0.93678 25.80156,-0.09 l 5,-0.82792 -6.32513,4.73193 c -4.90149,3.666878 -7.37732,4.831878 -11,5.176038 -4.18473,0.39755 -5.32874,0.007 -10.91145,-3.72779 z"
       id="path293"
       sodipodi:nodetypes="ccssscccssscccccscssscsssssccsssscssscssssscsssscssscssscssscssscccssscccssccccccscsscccsscccccsscccssssscccsssssscsssscssssssscsssscccssssscccssssccccsscccccccsscccscccsssscccsssssssscsssssscsssscssssscccssssscccsssscssssscccssssssssssssssssssssssssscssscccsssssssssssssssscssssssssssssssssssssssssssssssssssssssscssss" />
  </g>
</svg>
