<?xml version="1.0" encoding="UTF-8" standalone="no"?>
<!-- Created with Inkscape (http://www.inkscape.org/) -->

<svg
   width="8.3069849mm"
   height="10.000623mm"
   viewBox="0 0 8.3069849 10.000623"
   version="1.1"
   id="svg5"
   inkscape:version="1.1.2 (0a00cf5339, 2022-02-04)"
   sodipodi:docname="pandora-logo.svg"
   xmlns:inkscape="http://www.inkscape.org/namespaces/inkscape"
   xmlns:sodipodi="http://sodipodi.sourceforge.net/DTD/sodipodi-0.dtd"
   xmlns="http://www.w3.org/2000/svg"
   xmlns:svg="http://www.w3.org/2000/svg">
  <sodipodi:namedview
     id="namedview7"
     pagecolor="#ffffff"
     bordercolor="#666666"
     borderopacity="1.0"
     inkscape:pageshadow="2"
     inkscape:pageopacity="0.0"
     inkscape:pagecheckerboard="0"
     inkscape:document-units="mm"
     showgrid="false"
     fit-margin-top="0"
     fit-margin-left="0"
     fit-margin-right="0"
     fit-margin-bottom="0"
     inkscape:zoom="10.248373"
     inkscape:cx="14.538894"
     inkscape:cy="19.808023"
     inkscape:window-width="1920"
     inkscape:window-height="1009"
     inkscape:window-x="0"
     inkscape:window-y="0"
     inkscape:window-maximized="1"
     inkscape:current-layer="layer1" />
  <defs
     id="defs2" />
  <g
     inkscape:label="Layer 1"
     inkscape:groupmode="layer"
     id="layer1"
     transform="translate(-72.359833,-79.970527)">
    <path
       style="fill:#000000;stroke-width:0.0251395"
       d="m 74.68959,89.959551 c -0.03453,-0.03453 -0.01518,-0.224772 0.03048,-0.299651 0.04963,-0.0814 0.100929,-0.10787 0.334307,-0.17253 0.238985,-0.06621 0.396607,-0.249169 0.359645,-0.417452 -0.01567,-0.07135 -0.06071,-0.117467 -0.36551,-0.374208 -0.750149,-0.631878 -1.363167,-1.507238 -1.643054,-2.346202 -0.164722,-0.493753 -0.201113,-0.708458 -0.202348,-1.193816 -7.12e-4,-0.279294 -0.01029,-0.433624 -0.02693,-0.433657 -0.05275,-9.5e-5 -0.139762,0.08165 -0.188438,0.177068 -0.06111,0.119789 -0.16008,0.174833 -0.314347,0.174833 -0.09428,0 -0.129845,-0.01353 -0.187756,-0.07144 -0.233811,-0.233811 -0.09104,-0.602519 0.31451,-0.81222 0.08957,-0.04631 0.162892,-0.09361 0.162943,-0.105116 5e-5,-0.0115 -0.04032,-0.08987 -0.08973,-0.174164 -0.308359,-0.526134 -0.513529,-1.172864 -0.513529,-1.618726 0,-0.667239 0.381769,-1.23341 0.955214,-1.416604 0.210311,-0.06718 0.549225,-0.06848 0.691426,-0.0027 0.208661,0.09661 0.316789,0.294047 0.261712,0.477881 -0.06007,0.200517 -0.215969,0.263895 -0.500557,0.203501 -0.12156,-0.02579 -0.172013,-0.02573 -0.265085,2.85e-4 -0.142011,0.03976 -0.304824,0.192081 -0.389716,0.364602 -0.05579,0.113382 -0.06152,0.155193 -0.06026,0.439544 0.0012,0.27822 0.0095,0.337301 0.07225,0.515361 0.113078,0.320971 0.390553,0.850663 0.472479,0.901949 0.03522,0.02205 0.06112,0.01029 0.138269,-0.06278 0.16289,-0.154282 0.270427,-0.221805 0.451122,-0.283263 0.244146,-0.08303 0.3125,-0.122514 0.421968,-0.243681 0.363669,-0.402538 0.422056,-1.310843 0.123715,-1.924577 -0.152448,-0.313612 -0.292339,-0.457355 -0.568831,-0.58449 -0.216985,-0.09978 -0.27687,-0.155315 -0.309202,-0.286776 -0.02646,-0.10759 0.04753,-0.2705 0.156513,-0.344578 l 0.09246,-0.06284 1.711186,-0.007 c 1.593422,-0.0065 1.713361,-0.004 1.742774,0.03623 0.0231,0.03159 0.03158,0.192401 0.03158,0.598438 0,0.46185 0.0066,0.564639 0.03913,0.611114 0.05197,0.0742 0.186434,0.07579 0.252358,0.003 0.04376,-0.04833 0.04833,-0.101805 0.05306,-0.620029 0.0028,-0.311922 0.01098,-0.582251 0.01807,-0.60073 0.01011,-0.02635 0.112521,-0.0336 0.474808,-0.0336 0.432072,0 0.468905,0.0037 0.570066,0.05719 0.138167,0.07306 0.20832,0.194602 0.193815,0.335774 -0.016,0.155771 -0.08085,0.223313 -0.300119,0.312594 -0.416965,0.16978 -0.692241,0.61264 -0.753244,1.211817 -0.03184,0.312712 5.7e-4,0.726268 0.06971,0.889551 0.169184,0.399554 0.276756,0.509264 0.630305,0.642839 0.194761,0.07359 0.281833,0.123384 0.406564,0.23254 0.08729,0.0764 0.168545,0.138905 0.18055,0.138905 0.02012,0 0.06795,-0.06296 0.143322,-0.188654 0.05076,-0.08465 0.253348,-0.495767 0.306055,-0.621081 0.08323,-0.197885 0.136517,-0.513826 0.122073,-0.723777 -0.01674,-0.243324 -0.09942,-0.431312 -0.25077,-0.570179 -0.15255,-0.139967 -0.279452,-0.177421 -0.468713,-0.138329 -0.235509,0.04864 -0.316578,0.03956 -0.414545,-0.04646 -0.103199,-0.09061 -0.13606,-0.225575 -0.08997,-0.369507 0.04109,-0.128326 0.105927,-0.193646 0.256485,-0.258414 0.107815,-0.04638 0.162999,-0.05317 0.368334,-0.0453 0.28968,0.01109 0.479274,0.07444 0.686065,0.229239 0.38704,0.289731 0.58402,0.710687 0.584558,1.249234 4.75e-4,0.443288 -0.126824,0.870758 -0.441168,1.481813 -0.0814,0.158227 -0.147993,0.296617 -0.147993,0.307536 0,0.01092 0.05939,0.04993 0.131983,0.08668 0.290432,0.147083 0.446227,0.332892 0.446227,0.532195 0,0.238218 -0.142138,0.37597 -0.362331,0.351151 -0.121523,-0.0137 -0.241018,-0.09489 -0.241018,-0.163757 0,-0.04547 -0.136363,-0.182231 -0.181701,-0.182231 -0.02819,0 -0.03273,0.05601 -0.02413,0.2973 0.02535,0.710934 -0.182111,1.455171 -0.616206,2.210571 -0.273869,0.476582 -0.718164,1.015857 -1.105224,1.341499 -0.121284,0.10204 -0.287464,0.250292 -0.369287,0.329449 -0.13811,0.133609 -0.147746,0.150235 -0.134471,0.232039 0.03036,0.187099 0.218935,0.339411 0.469534,0.379248 0.07912,0.01258 0.137366,0.04273 0.196186,0.101546 0.07668,0.07668 0.08303,0.09476 0.07601,0.2168 l -0.0076,0.133143 -1.824549,0.0065 c -1.003501,0.0035 -1.832164,-0.0012 -1.841471,-0.01047 z m 3.179299,-1.690674 0.05935,-0.04806 v -1.893966 -1.89397 l -0.06652,-0.113128 c -0.03658,-0.06222 -0.217016,-0.26523 -0.400954,-0.451132 l -0.334432,-0.338002 -0.03075,0.07535 c -0.01691,0.04144 -0.03783,0.122886 -0.0465,0.180977 l -0.01575,0.105622 0.235758,0.245015 c 0.129666,0.134758 0.254659,0.272987 0.277762,0.307174 0.0383,0.05667 0.042,0.224739 0.042,1.905463 v 1.843306 l 0.0617,0.0617 c 0.07415,0.07416 0.138628,0.07819 0.218329,0.01364 z m -1.507566,-0.06896 c 0.06585,-0.0596 0.05755,-0.100374 -0.04179,-0.205182 -0.04827,-0.05092 -0.08787,-0.104016 -0.08799,-0.117972 -9.5e-5,-0.01396 -0.02148,-0.03866 -0.04748,-0.05489 -0.0424,-0.02648 -0.04883,-0.01999 -0.06257,0.06308 -0.02755,0.166619 -0.01771,0.254159 0.03441,0.306288 0.06113,0.06113 0.143606,0.06461 0.205422,0.0087 z m -0.719641,-0.170937 0.0617,-0.0617 1.9e-4,-1.804904 c 7.6e-5,-1.114113 0.0097,-1.83921 0.02504,-1.894537 0.01369,-0.04929 0.06454,-0.135941 0.112987,-0.192543 0.04845,-0.0566 0.08808,-0.113056 0.08808,-0.125456 0,-0.0124 -0.0279,-0.06036 -0.06201,-0.106599 -0.03411,-0.04623 -0.05456,-0.0965 -0.04545,-0.111726 0.02749,-0.04594 -0.07417,0.04008 -0.189848,0.160643 -0.05982,0.06234 -0.144667,0.186892 -0.188546,0.276765 l -0.07977,0.163407 v 1.831116 1.831116 l 0.05935,0.04806 c 0.0797,0.06454 0.144169,0.06052 0.218329,-0.01364 z m 1.569099,-0.345267 c 0.04973,-0.05338 0.05126,-0.08364 0.05126,-1.016457 v -0.961439 l 0.05656,-0.01724 c 0.135357,-0.04125 0.146152,-0.07224 0.130122,-0.373605 -0.0082,-0.153309 -0.01875,-0.318338 -0.02354,-0.366732 -0.0048,-0.04839 -0.0095,-0.118808 -0.01051,-0.156478 -0.0039,-0.148124 -0.322492,-0.205455 -0.533987,-0.09609 -0.144011,0.07447 -0.184457,0.11289 -0.249233,0.236731 -0.03769,0.07206 -0.05479,0.151249 -0.05591,0.258929 -0.0019,0.186675 0.07152,0.317645 0.247869,0.441948 l 0.111817,0.07882 v 0.963033 c 0,0.929514 0.0017,0.964782 0.05028,1.013312 0.06589,0.06589 0.161346,0.06388 0.225276,-0.0047 z m -0.166023,-2.307887 c -0.06447,-0.02602 -0.134672,-0.120152 -0.134672,-0.180598 0,-0.186148 0.232862,-0.287067 0.362728,-0.157201 0.102034,0.102033 0.06443,0.290076 -0.06718,0.335956 -0.08834,0.03079 -0.08911,0.0308 -0.160877,0.0018 z m -2.040971,2.069905 c 0.02528,-0.02288 0.04567,-0.05965 0.0453,-0.0817 -8.55e-4,-0.05138 -0.212928,-0.33348 -0.234488,-0.311921 -0.0089,0.0089 -0.01754,-0.0054 -0.01913,-0.03194 -0.0046,-0.07707 -0.04434,0.142699 -0.04594,0.254181 -0.0026,0.183701 0.136797,0.277686 0.254253,0.17139 z m 1.428648,-0.323547 c 0,-0.134217 -0.0025,-0.139403 -0.07541,-0.153979 -0.07352,-0.01471 -0.07542,-0.01878 -0.07542,-0.162779 v -0.147695 h 0.188546 0.188547 V 86.50689 86.356052 H 76.319314 75.97993 v 0.452512 0.452513 h 0.226256 0.226256 z m -1.528518,-0.929573 0.0076,-0.364562 -0.320529,3.9e-5 -0.320529,3.9e-5 v 0.150837 0.150837 h 0.163407 c 0.157541,0 0.163406,0.0023 0.163406,0.06284 0,0.06059 -0.0059,0.06285 -0.163406,0.06285 h -0.163431 v 0.150837 0.150837 h 0.312952 0.312953 z m 1.729634,-0.364484 v -0.150838 h -0.163407 -0.163407 v -0.589142 c 0,-0.352976 0.01066,-0.617512 0.0266,-0.659913 0.01463,-0.03892 0.07059,-0.116021 0.12436,-0.17133 0.196861,-0.202495 0.199819,-0.219606 0.200442,-1.159753 l 5.7e-4,-0.832939 0.137209,-0.06713 c 0.228677,-0.111882 0.365581,-0.329019 0.365581,-0.579829 0,-0.448725 -0.421691,-0.742414 -0.865537,-0.602807 -0.171961,0.05409 -0.349388,0.233249 -0.3939,0.397749 -0.03589,0.132666 -0.01715,0.408456 0.03456,0.508461 0.05329,0.103059 0.185763,0.230735 0.300996,0.290105 l 0.09427,0.04857 v 0.800237 c 0,0.899122 0.0192,0.798859 -0.203765,1.064293 -0.04985,0.05934 -0.103587,0.146358 -0.119413,0.193359 -0.01918,0.05695 -0.02877,0.348329 -0.02877,0.873598 v 0.788145 h 0.326814 0.326814 z M 76.34091,81.880062 c -0.218732,-0.140135 -0.147289,-0.518987 0.106859,-0.566664 0.190844,-0.0358 0.386899,0.111745 0.386899,0.291173 0,0.256673 -0.279617,0.412685 -0.493758,0.275491 z m 2.213765,3.522955 c 0.03883,-0.04291 0.04259,-0.103652 0.03532,-0.571924 -0.0093,-0.596707 -0.01516,-0.617921 -0.236509,-0.850726 -0.285603,-0.300383 -1.151025,-1.16807 -1.158032,-1.161064 -0.0042,0.0042 -0.01277,0.03529 -0.01897,0.06902 -0.0062,0.03372 -0.01298,0.06132 -0.01506,0.06132 -0.0042,0 -0.01357,0.04039 -0.0341,0.147358 -0.01538,0.08012 0.0331,0.136631 0.717487,0.836343 0.193857,0.198199 0.364092,0.395088 0.385122,0.44542 0.02857,0.06837 0.03769,0.195523 0.03769,0.525362 0,0.353162 0.0074,0.445684 0.03913,0.491029 0.05013,0.07158 0.186343,0.07589 0.247918,0.0079 z m -3.434331,-0.07416 c 0.02218,-0.01407 0.03036,-0.06504 0.02514,-0.156739 l -0.0077,-0.135887 -0.147895,-0.0076 -0.147894,-0.0076 0.01199,-0.311322 c 0.01401,-0.36373 0.01167,-0.358688 0.304155,-0.65326 0.355664,-0.358195 0.746397,-0.78966 0.746397,-0.824205 0,-0.0185 -0.0099,-0.04438 -0.0221,-0.05751 -0.01216,-0.01313 -0.03566,-0.0663 -0.05223,-0.118155 -0.01657,-0.05185 -0.03962,-0.09427 -0.05122,-0.09427 -0.04874,0 -1.135346,1.149053 -1.188661,1.256977 -0.05056,0.102348 -0.05671,0.158125 -0.06454,0.585332 -0.0048,0.259712 -0.0023,0.488796 0.0055,0.509076 0.01124,0.02928 0.06994,0.03679 0.285188,0.03648 0.149071,-1.9e-4 0.285833,-0.0098 0.303913,-0.02123 z"
       id="path900" />
  </g>
</svg>
