<?xml version="1.0" encoding="UTF-8" standalone="no"?>
<svg
   data-name="Layer 1"
   viewBox="0 0 45.906319 48.002121"
   x="0px"
   y="0px"
   version="1.1"
   id="svg14"
   sodipodi:docname="tops17-sancus-logo.svg"
   width="45.906319"
   height="48.002121"
   inkscape:version="1.2.2 (b0a8486541, 2022-12-01)"
   xmlns:inkscape="http://www.inkscape.org/namespaces/inkscape"
   xmlns:sodipodi="http://sodipodi.sourceforge.net/DTD/sodipodi-0.dtd"
   xmlns="http://www.w3.org/2000/svg"
   xmlns:svg="http://www.w3.org/2000/svg"
   xmlns:rdf="http://www.w3.org/1999/02/22-rdf-syntax-ns#"
   xmlns:cc="http://creativecommons.org/ns#"
   xmlns:dc="http://purl.org/dc/elements/1.1/">
  <defs
     id="defs18" />
  <sodipodi:namedview
     id="namedview16"
     pagecolor="#ffffff"
     bordercolor="#666666"
     borderopacity="1.0"
     inkscape:showpageshadow="2"
     inkscape:pageopacity="0.0"
     inkscape:pagecheckerboard="0"
     inkscape:deskcolor="#d1d1d1"
     showgrid="false"
     inkscape:zoom="3.9333333"
     inkscape:cx="22.881356"
     inkscape:cy="30.127119"
     inkscape:window-width="1680"
     inkscape:window-height="975"
     inkscape:window-x="0"
     inkscape:window-y="0"
     inkscape:window-maximized="1"
     inkscape:current-layer="svg14" />
  <title
     id="title2">1-roman</title>
  <path
     d="m 44.123861,35.781238 c -6.43908,-2.77531 -7.05782,-6.55321 -7.05782,-6.55321 a 17.91967,17.91967 0 0 0 6.57633,1.565 c -0.32356,-3.60037 -0.56813,-6.829 -0.69636,-8.598 a 0.482,0.482 0 0 0 -0.88166,-0.23017 c -6.36242,9.33025 -10.82691,6.416 -11.71024,5.68478 q -0.0787,-0.07379 -0.16054,-0.14415 h -5e-5 a 5.00739,5.00739 0 1 0 -4.10553,8.73171 l 7.42145,1.82783 c 1.26449,5.43888 8.83179,8.77162 11.748,9.86863 a 0.48221,0.48221 0 0 0 0.62393,-0.60558 79.14149,79.14149 0 0 1 -1.75751,-11.54684 z"
     id="path4" />
  <path
     d="m 32.613521,38.989028 -6.75347,-1.66329 a 6.11907,6.11907 0 1 1 5.05853,-10.66265 q 0.08548,0.07358 0.16682,0.14881 a 3.48143,3.48143 0 0 0 2.17914,0.734 h 3.3e-4 c 1.826,-2.4e-4 4.80692,-1.27837 8.64021,-7.36651 l 0.0021,-0.0033 a 15.3421,15.3421 0 0 0 -29.61773,5.61763 c 0,0.46827 0.02215,0.93132 0.06321,1.389 0.06787,0.77758 1.28326,15.45247 -3.16835,19.90294 a 0.48142,0.48142 0 0 0 0.29433,0.83029 c 3.68458,0.25935 14.82051,0.39394 19.94382,-6.7827 0,0 -0.0086,-0.03521 -0.02628,-0.10194 a 15.24267,15.24267 0 0 0 3.68144,-0.896 8.86989,8.86989 0 0 1 -0.46414,-1.14626 z"
     id="path6" />
  <path
     d="m 11.301461,36.502548 a 63.75427,63.75427 0 0 0 -0.05589,-9.22351 c -0.04472,-0.497 -0.06753,-0.99777 -0.06753,-1.48535 a 16.44538,16.44538 0 0 1 27.35785,-12.31566 0.30393,0.30393 0 0 0 0.455,-0.05437 l 3.64068,-5.3376298 a 0.31182,0.31182 0 0 0 -0.01679,-0.3744 22.25945,22.25945 0 0 0 -17.14815,-7.70960002 c -11.81703,0 -21.39656,8.58870002 -21.39656,19.18329982 0,0.58567 0.0309,1.16478 0.08817,1.737 0.09281,0.95381 1.72559,18.62743 -4.07099997,24.55631 a 0.30516,0.30516 0 0 0 0.31373,0.50335 31.1059,31.1059 0 0 1 7.35271997,-1.47579 c 1.88709,-1.16032 3.14622,-2.50907 3.54777,-8.00365 z"
     id="path8" />
  <metadata
     id="metadata324">
    <rdf:RDF>
      <cc:Work
         rdf:about="">
        <dc:title>1-roman</dc:title>
      </cc:Work>
    </rdf:RDF>
  </metadata>
</svg>
