<?xml version="1.0" encoding="UTF-8" standalone="no"?>
<!-- Created with Inkscape (http://www.inkscape.org/) -->

<svg
   version="1.1"
   id="svg2"
   width="595.42773"
   height="613.71869"
   viewBox="0 0 595.42773 613.71868"
   sodipodi:docname="zebra.svg"
   inkscape:version="1.2.2 (b0a8486541, 2022-12-01)"
   xmlns:inkscape="http://www.inkscape.org/namespaces/inkscape"
   xmlns:sodipodi="http://sodipodi.sourceforge.net/DTD/sodipodi-0.dtd"
   xmlns="http://www.w3.org/2000/svg"
   xmlns:svg="http://www.w3.org/2000/svg">
  <defs
     id="defs6">
    <filter
       style="color-interpolation-filters:sRGB"
       inkscape:label="Blur"
       id="filter1134"
       x="-0.032579266"
       y="-0.00022842697"
       width="1.0651585"
       height="1.0004569">
      <feGaussianBlur
         stdDeviation="5.5 0.01"
         result="blur"
         id="feGaussianBlur1132" />
    </filter>
  </defs>
  <sodipodi:namedview
     id="namedview4"
     pagecolor="#ffffff"
     bordercolor="#666666"
     borderopacity="1.0"
     inkscape:showpageshadow="2"
     inkscape:pageopacity="0.0"
     inkscape:pagecheckerboard="0"
     inkscape:deskcolor="#d1d1d1"
     showgrid="false"
     showguides="false"
     inkscape:zoom="0.63633828"
     inkscape:cx="240.43815"
     inkscape:cy="378.72938"
     inkscape:window-width="1680"
     inkscape:window-height="976"
     inkscape:window-x="0"
     inkscape:window-y="0"
     inkscape:window-maximized="1"
     inkscape:current-layer="g8" />
  <g
     inkscape:groupmode="layer"
     inkscape:label="Image"
     id="g8"
     transform="translate(-187.93378,-90.323713)">
    <path
       style="fill:#000000"
       d="m 464.21043,703.21014 c -42.2369,-0.5818 -41.5876,-0.4737 -44.9138,-7.4832 -2.0371,-4.2927 -1.994,-5.3592 0.3733,-9.2417 3.6704,-6.0196 3.9978,-6.0672 44.0467,-6.4111 42.2049,-0.3625 40.2697,-0.7245 53.2652,9.9647 10.232,8.4162 11.7286,9.9713 11.7286,12.1868 0,1.8608 -0.6774,1.9494 -13.25,1.7345 -7.2875,-0.1246 -30.35,-0.4621 -51.25,-0.75 z m 63,-42.4265 c -2.75,-1.862 -9.275,-6.1065 -14.5,-9.4323 -24.1759,-15.3882 -59.7811,-44.4499 -92.2533,-75.2989 -7.3582,-6.99048 -7.7531,-7.5876 -7.75,-11.71886 0,-3.73807 0.6287,-5.04861 4.4296,-9.27617 3.8325,-4.26264 6.3927,-9.64624 5.7642,-12.12076 -0.4844,-1.90706 1.8258,-0.0296 11.6948,9.50405 24.2447,23.42094 60.1094,50.78674 94.1147,71.81204 6.325,3.9108 11.6394,7.2476 11.8096,7.4151 0.3807,0.3746 -4.4703,23.5949 -6.0101,28.7688 -0.6138,2.0625 -1.3823,3.7461 -1.7078,3.7412 -0.3254,-0.01 -2.8417,-1.5322 -5.5917,-3.3942 z m -137.7987,-14.6931 c -4.4975,-0.716 -8.2466,-3.9963 -9.7404,-8.5225 -1.4059,-4.2599 0.2267,-7.9233 4.9474,-11.101 3.3673,-2.2668 3.7128,-2.2903 28.7645,-1.9605 l 25.3563,0.3338 2.9128,2.7906 c 4.6196,4.4259 5.5652,7.6849 3.4953,12.0469 -3.2218,6.7894 -4.1429,7.0088 -29.4251,7.0088 -12.4114,0 -24.2512,-0.2682 -26.3108,-0.5961 z m -71.65917,-3.7491 c -3.229,-3.0716 -4.04211,-4.5532 -4.04211,-7.3651 0,-1.9856 0.85706,-4.6095 1.96611,-6.0195 3.15561,-4.0117 6.92441,-5.0032 17.55669,-4.6186 l 9.6334,0.3484 3.4219,3.7353 c 4.67068,5.0985 4.56648,8.4773 -0.42326,13.7226 l -3.84517,4.0421 h -10.11273 -10.11273 z m 382.39217,-34.2787 c -8.7248,-0.9707 -20.2722,-5.0294 -27.0416,-9.5047 -6.8385,-4.5209 -14.6067,-12.8868 -17.7788,-19.1466 -4.2877,-8.4614 -8.2462,-23.79576 -7.7152,-29.88701 0.056,-0.63922 2.972,-3.21072 6.4807,-5.71445 6.5229,-4.65465 7.6206,-6.09954 7.6206,-10.0308 0,-4.27482 -9.2402,-10.58505 -15.5,-10.58505 -7.2669,0 -10.5401,3.09123 -14.6179,13.80529 l -0.8803,2.31277 -4.443,-3.19071 c -2.4436,-1.7549 -4.7271,-3.92065 -5.0743,-4.81278 -1.3603,-3.49518 -1.6995,-18.70859 -0.5141,-23.06165 4.0888,-15.01634 21.1095,-17.04105 44.9222,-5.34376 8.9796,4.41096 9.4527,4.53165 10.7593,2.74479 2.5951,-3.549 3.3827,-8.49391 1.8308,-11.49484 -3.462,-6.69493 -20.8144,-18.04017 -34.4827,-22.54532 -11.5595,-3.81009 -22.9397,-1.8781 -30.3609,5.1543 -4.2664,4.04291 -5.7221,8.57957 -7.1905,22.40851 -1.6457,15.49939 -3.2328,23.01592 -4.8599,23.01592 -1.8671,0 -25.3923,-10.72398 -28.7144,-13.0895 -3.8045,-2.70906 -10.1134,-16.00245 -12.8142,-27.00081 -4.3986,-17.91213 -4.5645,-43.84629 -0.3896,-60.90969 4.5749,-18.69836 15.0734,-28.50819 34.2262,-31.98127 26.832,-4.86556 62.0192,19.64245 90.8359,63.26742 5.5779,8.44431 6.7593,9.69879 8.6158,9.14903 2.3563,-0.69772 4.6516,-3.15372 4.6516,-4.97709 0,-4.78208 -8.5866,-19.39438 -27.8877,-47.45809 -6.998,-10.175 -18.3235,-27.44143 -25.1679,-38.36985 -6.8444,-10.92841 -16.6768,-26.21681 -21.8498,-33.97421 -5.173,-7.7574 -10.2148,-15.93414 -11.2041,-18.17053 -4.1275,-9.33099 -4.9102,-35.81278 -1.4477,-48.98541 3.1843,-12.11448 8.8586,-21.6529 19.6001,-32.94744 5.7813,-6.07892 9.9571,-11.30612 9.9571,-12.46409 0,-2.87014 -2.0172,-6.88109 -3.8058,-7.56745 -3.5865,-1.37626 -21.2267,9.54618 -28.7629,17.80934 -15.3167,16.79434 -20.5475,30.61757 -22.1064,58.41964 l -0.6308,11.25 h -8.2246 c -9.3959,0 -10.1646,-0.49663 -11.0774,-7.15639 -0.8208,-5.98831 1.2145,-24.58726 3.7036,-33.84361 2.2951,-8.53528 10.6519,-24.83616 18.0418,-35.19269 2.7524,-3.8573 5.2483,-7.64896 5.5464,-8.4259 0.3069,-0.79971 -1.194,-3.29601 -3.4592,-5.75345 l -4.0012,-4.34082 2.9398,-11.39357 c 3.791,-14.69224 4.5947,-27.38828 2.4944,-39.4043 -3.4993,-20.02009 -8.5952,-30.38576 -21.1804,-43.08325 -12.0848,-12.1926 -18.8806,-13.8373 -29.6259,-7.16997 -8.4958,5.27147 -21.6776,17.72042 -26.6745,25.19147 -9.1294,13.64955 -15.1181,37.16579 -13.8074,54.2181 l 0.6422,8.35438 h -83.1047 c -93.771,0 -87.72682,0.50722 -92.99776,-7.8042 l -2.82104,-4.44832 1.96877,-3.85911 c 3.43956,-6.74209 2.35596,-6.56538 45.94303,-7.49193 45.3468,-0.96395 75.2993,-1.09445 89.1574,-0.38844 5.3116,0.2706 10.0095,0.14413 10.4397,-0.28104 2.3897,-2.36141 -20.265,-19.81648 -30.1145,-23.20273 -5.2728,-1.81279 -38.3919,-3.78153 -57.4826,-3.41702 -18.2027,0.34756 -17.1231,0.63145 -24.5228,-6.44787 -5.9536,-5.69583 -6.5946,-6.68622 -6.3024,-9.73851 0.2969,-3.1019 0.6736,-3.45914 4.3252,-4.1017 6.0973,-1.07292 98.7581,-0.91703 109,0.18337 27.2951,2.93261 31.2929,3.1787 33.3918,2.05542 2.9768,-1.59313 2.6355,-3.46857 -1.4553,-7.99661 -5.1775,-5.73083 -10.2643,-7.76895 -33.8171,-13.54947 -46.9539,-11.523802 -42.0229,-14.253102 27.3806,-15.155142 51.7033,-0.67199 54.0448,-0.3931 81,9.647732 27.5255,10.25326 38.7317,16.1709 52.7424,27.85158 8.2768,6.90029 20.1672,21.83436 24.7966,31.14399 2.0512,4.125 3.8688,7.66217 4.039,7.86038 0.1702,0.1982 3.2504,-2.13466 6.845,-5.18415 3.5946,-3.04949 14.3074,-10.6966 23.8063,-16.99356 14.8305,-9.83137 18.8454,-13.08398 28.4156,-23.02042 11.1214,-11.547 14.9591,-14.06578 17.817,-11.69393 3.3191,2.75469 4.039,8.17955 3.985,30.03168 -0.056,22.75024 -0.9148,28.56919 -6.349,43.03224 -3.7853,10.07454 -15.1464,26.61883 -26.5979,38.73244 -10.8556,11.48329 -15.5,18.46416 -15.5,23.29763 0,6.76694 5.565,15.92238 21.9131,36.05131 4.6272,5.6973 9.8022,13.28996 11.5,16.87256 l 3.0869,6.51382 0.1465,24.31703 c 0.081,13.37436 0.4378,26.42436 0.7939,29 1.7376,12.57079 5.0895,26.49524 8.1904,34.02467 1.8895,4.58794 4.3483,10.97945 5.464,14.20335 1.1157,3.2239 5.5479,12.97013 9.8494,21.65829 4.3015,8.68816 9.0382,18.72166 10.5259,22.29666 1.4878,3.575 4.3321,9.425 6.3207,13 11.1462,20.03783 20.3315,41.69796 21.6641,51.0867 0.5195,3.66023 0.1046,5.50127 -2.4314,10.78929 -1.6817,3.5068 -4.175,7.70382 -5.5406,9.32673 -4.4023,5.23184 -2.1706,9.48505 2.5171,4.79728 l 2,-2 v 2.84345 c 0,6.21309 -7.8597,24.21986 -16.2451,37.21774 -14.1167,21.8819 -38.2128,33.6082 -63.3206,30.8149 z m 25.7955,-65.8422 c 4.2626,-3.35293 5.3157,-7.317 3.3273,-12.52371 -2.7978,-7.32587 -11.5521,-12.73217 -17.9975,-11.11449 -3.8791,0.9736 -6.7636,6.17364 -6.2475,11.26297 1.0531,10.38648 13.8336,17.94759 20.9177,12.37523 z M 587.12413,493.551 c 0.3452,-0.89961 1.272,-6.22556 2.0595,-11.83544 1.7328,-12.34411 4.2658,-19.44229 9.5926,-26.88106 9.0263,-12.60513 22.1818,-15.23901 40.0967,-8.02786 10.4489,4.20587 25.8797,14.72084 37.5895,25.61439 6.6924,6.22591 7.7824,6.37891 8.7946,1.23437 0.7305,-3.71267 -2.3166,-8.47208 -13.3091,-20.78801 -15.3932,-17.24641 -30.5939,-28.22129 -47.1918,-34.07235 -6.9283,-2.44235 -10.1545,-3.01289 -17.0457,-3.01444 -10.7322,-0.002 -17.2452,2.61295 -23.1482,9.2954 -4.9056,5.55341 -5.581,7.17587 -7.5393,18.11065 -2.6423,14.75422 -0.187,34.77906 5.8352,47.59076 2.2137,4.70953 3.2617,5.39085 4.266,2.77359 z m 131.9379,-45.29267 c -0.1342,-4.84883 -2.208,-9.4885 -21.6631,-48.46691 -20.436,-40.94347 -26.8457,-54.77643 -41.9834,-90.60477 -7.4332,-17.59325 -8.6916,-21.64585 -8.6995,-28.0156 -0.01,-5.36289 2.9076,-11.36217 5.7255,-11.78677 3.2293,-0.48659 9.9617,8.13734 15.4134,19.7441 5.1703,11.00744 8.8463,20.51831 18.9336,48.98625 8.3989,23.70329 29.441,72.75783 41.163,95.96179 6.0761,12.02786 10.9686,18.71669 12.8429,17.55831 1.8431,-1.13909 0.8387,-9.50968 -2.174,-18.1184 -1.6996,-4.85632 -5.8053,-14.45468 -9.1238,-21.32968 -15.1244,-31.33306 -22.2261,-53.2906 -27.3369,-84.52169 -1.4212,-8.68489 -3.676,-18.69171 -5.0106,-22.23737 -1.3346,-3.54567 -5.951,-11.46288 -10.2587,-17.59381 -4.3076,-6.13092 -9.0001,-13.17213 -10.4277,-15.64713 -6.5297,-11.32046 -19.6993,-23.81129 -26.9274,-25.53959 -6.2503,-1.49449 -18.2404,15.74792 -20.9428,30.11676 -1.5141,8.05063 -0.4579,22.62682 2.2337,30.82603 2.0076,6.11539 7.6305,16.53413 28.1163,52.0968 4.1187,7.15 10.7738,18.85 14.7889,26 4.0152,7.15 8.5979,14.9099 10.1837,17.24422 3.7543,5.526 12.8952,21.376 18.9185,32.80369 5.3691,10.18656 12.283,18.72325 14.7547,18.2177 1.2767,-0.26115 1.5905,-1.47359 1.4737,-5.69393 z m -188.86,143.05511 c -27.8933,-16.7911 -51.8062,-35.24015 -72.001,-55.54932 -31.439,-31.61697 -48.6292,-55.88617 -69.6469,-98.32747 l -10.0282,-20.25 h -24.7729 c -23.60781,0 -24.89772,-0.0982 -27.4277,-2.0883 -7.47898,-5.88296 -7.24063,-15.46827 0.48396,-19.46281 3.83209,-1.98165 75.62934,-2.16456 78.07254,-0.19889 0.8546,0.6875 3.6579,7.89582 6.2296,16.01848 3.0157,9.52493 7.2996,19.99891 12.0657,29.5 11.4351,22.79557 20.6338,35.57743 42.6774,59.3017 21.9247,23.59638 43.611,41.2941 67.158,54.80611 7.8088,4.48099 14.7451,8.49654 15.4139,8.92345 0.9459,0.60386 0.9014,1.82131 -0.2007,5.4833 -0.7792,2.58895 -2.3374,9.74785 -3.4627,15.90875 -1.1253,6.1609 -2.385,11.5077 -2.7993,11.8818 -0.4143,0.374 -5.7071,-2.302 -11.7617,-5.9468 z m -268.45395,-2.7591 c -7.35309,-3.0753 -9.34533,-11.9061 -3.91182,-17.3397 l 3.12581,-3.12577 24.45271,0.29889 24.4527,0.29889 3.42149,3.73529 c 1.88181,2.0545 3.42148,4.6643 3.42148,5.7997 0,2.7176 -2.2526,6.979 -5.00441,9.4674 -2.07057,1.8723 -3.62196,1.9976 -24.72993,1.9976 -14.50707,0 -23.4841,-0.4029 -25.22803,-1.1323 z m 94.46235,-0.2282 c -6.8214,-4.2136 -8.64906,-8.8491 -5.4999,-13.9497 3.1873,-5.16232 6.5801,-6.02832 21.2886,-5.43375 14.0265,0.56695 16.1891,1.39965 19.3101,7.43495 1.9299,3.732 0.6323,7.5953 -3.8052,11.3293 -2.7984,2.3547 -3.586,2.4795 -15.6203,2.476 -10.588,0 -13.1669,-0.3087 -15.6733,-1.8568 z m -63.49998,-54.63673 c -4.125,-0.74277 -10.65,-1.38726 -14.5,-1.4322 -13.64338,-0.15926 -17.17798,-2.55038 -18.18439,-12.30154 -0.4203,-4.0723 -0.18126,-5.76051 0.98008,-6.92185 1.33645,-1.33645 10.34672,-1.62944 69.37105,-2.25575 37.30934,-0.3959 68.62064,-0.41836 69.58084,-0.0499 1.873,0.71874 10.1192,11.6006 14.7764,19.49913 l 2.8452,4.82558 -16.6846,-0.52399 c -25.941,-0.8147 -82.74849,-0.91675 -92.18458,-0.1656 -5.62559,0.44781 -11.03625,0.21993 -16,-0.67387 z m 255.99998,-1.78592 c -13.2683,-7.98909 -32.9085,-21.51705 -40.5,-27.89606 -39.1913,-32.93181 -67.3195,-78.25356 -74.4276,-119.92238 -2.8207,-16.53479 -4.3871,-36.20215 -3.6158,-45.3984 1.6833,-20.07124 5.9109,-41.25436 10.0282,-50.24762 l 2.4046,-5.25238 h 8.885 8.885 l -1.2674,6.25 c -2.6698,13.16534 -4.4657,27.92356 -5.5673,45.75 -1.3665,22.11406 -0.091,34.67812 5.6325,55.5 3.9429,14.34314 6.9163,21.03888 14.6543,33 l 5.1754,8 2.3566,-6.94479 c 2.9227,-8.61341 2.9197,-9.28732 -0.1435,-31.55521 -5.7661,-41.91737 -1.4445,-78.57716 14.3028,-121.3297 3.633,-9.86315 8.2576,-16.67483 11.3153,-16.66656 2.5253,0.007 7.8819,3.93905 7.8819,5.78598 0,1.00052 -1.7696,11.01964 -3.9324,22.2647 -10.8792,56.56376 -13.0734,71.30609 -15.0561,101.15801 -1.1401,17.16466 -0.1481,37.0778 2.3922,48.02439 0.7994,3.44475 2.8379,9.34761 4.5299,13.11746 3.6055,8.03329 13.5549,23.64572 15.0687,23.64572 2.183,0 2.7289,-4.60562 1.4816,-12.5 -0.6952,-4.4 -1.8354,-14.35298 -2.5338,-22.11773 -1.3493,-15.00127 -0.6669,-27.09077 2.5955,-45.97793 2.6792,-15.51113 11.9147,-54.51926 12.9169,-54.55744 0.9297,-0.0354 10.605,20.30241 12.7884,26.8815 0.8899,2.6813 0.6118,4.75999 -1.6409,12.2663 -4.6277,15.41983 -9.6105,50.32201 -9.6086,67.30333 0,25.91643 7.9651,53.49987 18.7088,64.81264 l 5.3285,5.61067 -1.0567,4.92729 c -0.5812,2.71001 -1.3774,7.79846 -1.7694,11.30768 -0.3919,3.50923 -1.1626,6.4901 -1.7126,6.62417 -0.55,0.13407 -2.575,-0.70457 -4.5,-1.86364 z m -344.41974,-1.23302 c -2.95584,-2.23651 -5.56635,-6.70788 -5.57365,-9.54673 -0.008,-2.92653 4.05657,-7.26698 8.30851,-8.87347 4.39039,-1.65881 27.19877,-1.36637 30.59971,0.39233 3.3677,1.7415 6.48976,7.79598 5.68124,11.01739 -0.31803,1.2671 -2.17289,3.70396 -4.12193,5.41524 l -3.54371,3.11142 -14.71521,-0.0318 c -11.28047,-0.0244 -15.1633,-0.37086 -16.63496,-1.48438 z m 82.66062,-58.47591 c -3.57314,-2.18132 -7.23125,-7.43304 -7.23712,-10.38988 -0.005,-2.57366 3.72107,-8.40039 6.23108,-9.7437 1.40529,-0.75209 13.64206,-1.04789 38.66063,-0.93453 l 36.60453,0.16584 2.7039,2.59007 c 6.4427,6.17153 7.1133,13.17674 1.6977,17.73368 l -2.9515,2.48346 -36.22502,0.0423 c -34.44415,0.0403 -36.38529,-0.0555 -39.4842,-1.94729 z m -60.13555,-2.53173 c -4.6632,-4.21293 -5.69451,-7.43611 -3.64651,-11.39651 2.75405,-5.32575 6.08277,-7.08008 13.42606,-7.07593 7.35628,0.004 11.7291,1.95125 14.75559,6.57028 1.69469,2.58642 1.67304,2.81353 -0.69566,7.29774 -3.00024,5.67976 -7.42004,8.12453 -14.69191,8.12669 -4.59996,0.001 -5.72819,-0.43307 -9.14757,-3.52227 z m -13.16068,-56.29626 c -4.66007,-4.66006 -5.0985,-8.16803 -1.66,-13.28204 3.65139,-5.43064 5.97719,-5.77886 39.01503,-5.84144 32.32307,-0.0612 33.30587,0.084 37.61204,5.55844 3.39564,4.31685 2.24058,10.22051 -2.91277,14.88748 -2.09522,1.89748 -3.85805,2.0133 -35.15775,2.30991 l -32.95193,0.31228 z m 89.05537,-52.14301 c -15.13798,-0.36123 -23.20696,-0.94177 -24.66062,-1.77426 -2.928,-1.67681 -6.33938,-7.40536 -6.33938,-10.64537 0,-1.61936 1.32875,-4.0965 3.42333,-6.38197 l 3.42334,-3.73531 h 56.90474 56.90477 l 3.6729,2.80169 c 7.432,5.66899 8.488,13.15015 2.5602,18.13803 l -3.0427,2.56028 -35.1733,-0.21309 c -19.34531,-0.11719 -45.29828,-0.45469 -57.67328,-0.75 z m -94.65929,-0.74196 -13.15929,-0.35174 -3.69258,-4.08724 c -3.11263,-3.44532 -3.59848,-4.57953 -3.09341,-7.22161 0.32954,-1.7239 2.10169,-4.53538 3.93811,-6.24774 3.31039,-3.08676 3.45966,-3.1196 17.46186,-3.84103 9.80204,-0.50502 15.19095,-0.37517 17.61378,0.42444 3.3512,1.10599 9.59082,7.02427 9.59082,9.09688 0,2.67215 -3.10295,7.87021 -5.87736,9.84576 -3.7001,2.63471 -5.66215,2.83987 -22.78193,2.38228 z m 382.15927,-3.28011 c -10.4702,-0.79552 -15.3362,-2.87736 -20.7616,-8.88269 -4.5383,-5.02328 -6.5722,-8.91935 -7.6399,-14.63424 -1.2043,-6.44659 -0.058,-7.48087 9.7202,-8.77187 11.0677,-1.46123 17.1493,0.34579 23.1788,6.8871 3.9895,4.32801 11.0375,17.61818 12.5351,23.63686 0.6715,2.69874 0.603,2.74719 -3.6742,2.59933 -2.3971,-0.0829 -8.4084,-0.45839 -13.3584,-0.83449 z M 321.63759,301.43665 c -2.81128,-2.6386 -4.17352,-4.86919 -4.59639,-7.52631 -0.55145,-3.46513 -0.25676,-4.10375 3.57625,-7.75 l 4.17721,-3.97369 h 36.50757 c 29.9232,0 37.0129,0.26132 39.3094,1.44892 3.9113,2.0226 9.3506,8.45254 8.664,10.24188 -0.3109,0.81002 -0.5652,2.09597 -0.5652,2.85765 0,0.76169 -1.59,2.97488 -3.5333,4.91822 l -3.5333,3.53333 H 363.63843 325.633 Z m -58.92426,-0.86636 c -5.21621,-4.71253 -5.58064,-9.65203 -1.04665,-14.18603 8.04684,-8.04684 26.74732,-2.62433 23.99889,6.95888 -2.08265,7.26177 -7.01094,10.84351 -14.92012,10.84351 -3.22495,0 -4.82826,-0.72187 -8.03212,-3.61636 z m 81.31903,-50.38023 c -37.7013,-0.48443 -39.28445,-0.58185 -42,-2.58443 -1.55205,-1.14456 -3.71863,-3.71928 -4.81462,-5.72159 -1.96893,-3.59712 -1.96988,-3.68294 -0.0798,-7.1926 1.05209,-1.95362 3.3723,-4.454 5.15601,-5.5564 3.18671,-1.96949 4.6785,-1.99952 85.76458,-1.72637 l 82.5214,0.27798 2.9926,2.86748 c 4.5368,4.34711 5.6416,7.75793 3.7178,11.47814 -0.8678,1.67804 -3.2304,4.31176 -5.2503,5.85269 l -3.6725,2.80169 -42.5785,0.003 c -23.4182,0.002 -60.2087,-0.22312 -81.75667,-0.5 z m -105.54677,-3.56221 c -4.8523,-2.63325 -6.24861,-8.69114 -3.31213,-14.36968 1.94587,-3.76289 3.04471,-4.07152 14.49633,-4.07152 11.47776,0 12.16516,0.45621 12.83365,8.5173 0.41153,4.96251 0.20296,5.64059 -2.59583,8.43938 -2.88207,2.88208 -3.458,3.0412 -10.87024,3.00328 -4.94225,-0.0253 -8.83119,-0.58503 -10.55178,-1.51876 z m 297.00884,-12.6912 c -9.2815,-15.97336 -12.7303,-27.95146 -13.4862,-46.83961 -0.8735,-21.82546 2.7034,-35.67323 12.1829,-47.16569 5.9988,-7.27272 11.7711,-11.7447 15.1597,-11.7447 3.3535,0 11.1183,8.25973 14.4422,15.3628 3.9571,8.45618 5.8822,18.15023 5.8853,29.6372 0.01,16.80084 -3.5264,27.031 -15.921,46.12768 -4.1508,6.39522 -8.7733,13.70772 -10.2723,16.25 -1.4989,2.54227 -3.0929,4.62232 -3.5422,4.62232 -0.4492,0 -2.4511,-2.8125 -4.4484,-6.25 z"
       id="path239" />
  </g>
</svg>
